<?xml version="1.0" encoding="UTF-8"?>
<svg width="18px" height="18px" viewBox="0 0 18 18" version="1.1" xmlns="http://www.w3.org/2000/svg" xmlns:xlink="http://www.w3.org/1999/xlink">
    <title>attachment_rar</title>
    <g id="页面-1" stroke="none" stroke-width="1" fill="none" fill-rule="evenodd">
        <g id="邮件附件" transform="translate(-72.000000, -24.000000)">
            <g id="编组-3" transform="translate(72.000000, 24.000000)">
                <rect id="矩形" fill-opacity="0" fill="#FFFFFF" opacity="0" x="0" y="0" width="18" height="18"></rect>
                <path d="M3,0 L12.1715729,0 C12.7020059,-9.74389576e-17 13.2107137,0.210713681 13.5857864,0.585786438 L16.4142136,3.41421356 C16.7892863,3.78928632 17,4.29799415 17,4.82842712 L17,16 C17,17.1045695 16.1045695,18 15,18 L3,18 C1.8954305,18 1,17.1045695 1,16 L1,2 C1,0.8954305 1.8954305,2.02906125e-16 3,0 Z" id="矩形" fill="#FFD37A"></path>
                <path d="M7,10 L7,11 L9,11 L9,14 C9,14.5522847 8.55228475,15 8,15 L6,15 C5.44771525,15 5,14.5522847 5,14 L5,10 L7,10 Z M8,12 L6,12 L6,13 L8,13 L8,12 Z M9,8 L9,10 L7,10 L7,8 L9,8 Z M7,6 L7,8 L5,8 L5,6 L7,6 Z M9,4 L9,6 L7,6 L7,4 L9,4 Z M7,2 L7,4 L5,4 L5,2 L7,2 Z" id="形状结合" fill="#FFFFFF"></path>
            </g>
        </g>
    </g>
</svg>