<?xml version="1.0" encoding="UTF-8"?>
<svg width="18px" height="18px" viewBox="0 0 18 18" version="1.1" xmlns="http://www.w3.org/2000/svg" xmlns:xlink="http://www.w3.org/1999/xlink">
    <title>attachment_document</title>
    <g id="页面-1" stroke="none" stroke-width="1" fill="none" fill-rule="evenodd">
        <g id="邮件附件" transform="translate(-120.000000, -24.000000)">
            <g id="编组-4" transform="translate(120.000000, 24.000000)">
                <rect id="矩形" fill-opacity="0" fill="#FFFFFF" opacity="0" x="0" y="0" width="18" height="18"></rect>
                <path d="M3,0 L12.1715729,0 C12.7020059,-9.74389576e-17 13.2107137,0.210713681 13.5857864,0.585786438 L16.4142136,3.41421356 C16.7892863,3.78928632 17,4.29799415 17,4.82842712 L17,16 C17,17.1045695 16.1045695,18 15,18 L3,18 C1.8954305,18 1,17.1045695 1,16 L1,2 C1,0.8954305 1.8954305,2.02906125e-16 3,0 Z" id="矩形" fill="#93B7F5"></path>
                <g id="编组-2" transform="translate(4.000000, 5.000000)" fill="#FFFFFF">
                    <rect id="矩形" x="0" y="0" width="6.39494679" height="1.4" rx="0.7"></rect>
                    <rect id="矩形备份-5" x="0" y="3.4" width="6.39494679" height="1.4" rx="0.7"></rect>
                    <rect id="矩形备份-6" x="0" y="6.8" width="9" height="1.4" rx="0.7"></rect>
                </g>
            </g>
        </g>
    </g>
</svg>