<?xml version="1.0" encoding="UTF-8"?>
<svg width="20px" height="18px" viewBox="0 0 20 18" version="1.1" xmlns="http://www.w3.org/2000/svg" xmlns:xlink="http://www.w3.org/1999/xlink">
    <title>display</title>
    <g id="域名+邮箱" stroke="none" stroke-width="1" fill="none" fill-rule="evenodd">
        <g id="content-types-display" transform="translate(-812.000000, -329.000000)">
            <g id="编组-2" transform="translate(822.000000, 338.000000) rotate(-180.000000) translate(-822.000000, -338.000000) translate(812.000000, 329.000000)">
                <g id="display" transform="translate(0.000000, -0.000000)">
                    <rect id="矩形" stroke="#E1E1E1" fill="#F9F9F9" x="0.5" y="0.5" width="19" height="17" rx="3"></rect>
                    <g id="展开" transform="translate(2.000000, 0.000000)" fill="#000000" fill-rule="nonzero">
                        <rect id="矩形" opacity="0" x="0" y="0" width="16" height="16"></rect>
                        <path d="M11.775,9.555 C11.9355904,9.45836964 12.1367353,9.4596636 12.2960692,9.55835203 C12.4554031,9.65704047 12.5461655,9.83654844 12.5311908,10.0233704 C12.5162161,10.2101924 12.3980193,10.3729513 12.225,10.445 L8.225,12.445 C8.08347621,12.5163143 7.91652379,12.5163143 7.775,12.445 L3.775,10.445 C3.55060363,10.3099763 3.46841404,10.0246808 3.58658295,9.79096891 C3.70475187,9.55725705 3.98323642,9.45432482 4.225,9.555 L8,11.44 L11.775,9.555 Z M11.775,5.055 C11.9355904,4.95836964 12.1367353,4.9596636 12.2960692,5.05835203 C12.4554031,5.15704047 12.5461655,5.33654844 12.5311908,5.52337044 C12.5162161,5.71019243 12.3980193,5.8729513 12.225,5.945 L8.225,7.945 C8.08347621,8.0163143 7.91652379,8.0163143 7.775,7.945 L3.775,5.945 C3.60198068,5.8729513 3.48378386,5.71019243 3.46880916,5.52337044 C3.45383447,5.33654844 3.54459693,5.15704047 3.70393083,5.05835203 C3.86326473,4.9596636 4.06440961,4.95836964 4.225,5.055 L8,6.94 L11.775,5.055 Z" id="形状"></path>
                    </g>
                </g>
            </g>
        </g>
    </g>
</svg>