<?xml version="1.0" encoding="UTF-8"?>
<svg width="177px" height="177px" viewBox="0 0 177 177" version="1.1" xmlns="http://www.w3.org/2000/svg" xmlns:xlink="http://www.w3.org/1999/xlink">
    <title>admin/lv1/ empty_state_human</title>
    <defs>
        <linearGradient x1="99.830382%" y1="100%" x2="2.68136405%" y2="100%" id="linearGradient-1">
            <stop stop-color="#DAEEFF" offset="0%"></stop>
            <stop stop-color="#ADD8FF" offset="100%"></stop>
        </linearGradient>
    </defs>
    <g id="admin/lv1/-empty_state_human" stroke="none" stroke-width="1" fill="none" fill-rule="evenodd">
        <g>
            <polygon id="Path" fill="#FCE0CD" fill-rule="nonzero" opacity="0.900000036" transform="translate(100.143184, 27.500000) scale(-1, 1) translate(-100.143184, -27.500000) " points="113.643184 20.8414753 113.643184 42.4274259 86.6431838 49 86.6431838 12.5725741 113.643184 6"></polygon>
            <g id="五官" transform="translate(97.990609, 29.500000) scale(-1, 1) translate(-97.990609, -29.500000) translate(89.490348, 21.000000)">
                <circle id="Oval" fill="#B0B0B0" fill-rule="nonzero" cx="1.75365997" cy="9" r="1"></circle>
                <circle id="Oval" fill="#B0B0B0" fill-rule="nonzero" cx="14.75366" cy="9" r="1"></circle>
                <polyline id="Path" stroke="#B0B0B0" stroke-width="0.756" stroke-linecap="round" stroke-linejoin="round" points="11.0005215 13 11.0005215 0 17.0005215 0"></polyline>
                <line x1="0" y1="0.5" x2="6" y2="0.5" id="Path" stroke="#B0B0B0" stroke-width="0.756" stroke-linecap="round" stroke-linejoin="round"></line>
                <path d="M8.01932716,17 C5.81018946,17 4.01932716,14.7614222 4.01932716,12" id="Path" stroke="#FF7148" stroke-width="0.756" stroke-linecap="round" stroke-linejoin="round"></path>
                <line x1="10.6096322" y1="14" x2="7.60963218" y2="15" id="Path" stroke="#B0B0B0" stroke-width="0.756" stroke-linecap="round" stroke-linejoin="round"></line>
            </g>
            <path d="M115.788332,26.9728451 L115.788332,31 C114.727466,31 113.710051,30.5855934 112.959905,29.847945 C112.209759,29.1102966 111.788332,28.1098306 111.788332,27.0666382 C111.788332,26.9459561 111.793782,26.8266181 111.804681,26.7086243 C112.028789,24.2661257 115.788332,24.520425 115.788332,26.9728451 Z" id="Path" fill="#EDEEEF" fill-rule="nonzero" transform="translate(113.788332, 28.000000) scale(-1, 1) translate(-113.788332, -28.000000) "></path>
            <path d="M115.788332,31 C113.579193,31 111.788332,29.209139 111.788332,27" id="Path" stroke="#B0B0B0" transform="translate(113.788332, 29.000000) scale(-1, 1) translate(-113.788332, -29.000000) "></path>
            <line x1="113.643289" y1="42" x2="86.643289" y2="49" id="Path" stroke="#B0B0B0" transform="translate(100.143289, 45.500000) scale(-1, 1) translate(-100.143289, -45.500000) "></line>
            <path d="M86.2850287,24 C86.2850287,24 90.4241043,20.1954909 91.3346985,15.8120276 C91.3346985,15.8120276 98.2055569,17.5488702 102.013505,16.8045091 L102.013505,14.4887223 C102.013505,14.4887223 106.649264,16.3082684 111.285029,15.4812038 L111.285029,13" id="Path" stroke="#B0B0B0" transform="translate(98.785029, 18.500000) scale(-1, 1) translate(-98.785029, -18.500000) "></path>
            <path d="M116.310486,11.1182524 L119.220415,11.1182524 C119.220415,11.1182524 113.566837,-1.7146531 91.7839263,3.96143974 L93.3636045,1 C93.3636045,1 86.8786164,2.06941044 86.6291938,7.74550328 C86.6291938,7.74550328 85.3820807,7.00514334 83.2204146,9.06169543 L85.0495155,10.1311059 C85.0495155,10.1311059 80.8049561,24.9383046 88.6639586,33" id="Path" stroke="#B0B0B0" transform="translate(101.220415, 17.000000) scale(-1, 1) translate(-101.220415, -17.000000) "></path>
            <path d="M57.2621964,86.4550433 L57.2621964,143.973116 L139.262196,164 L139.262196,99.9405691 C139.262196,77.2261954 123.656695,57.4464709 101.458539,52.0250198 L101.458459,52.0250198 C90.8129925,49.4250761 79.5556406,51.8320862 70.9285187,58.5528317 C62.3013968,65.2735771 57.2621964,75.5619953 57.2621964,86.4550234 L57.2621964,86.4550433 Z" id="Path" fill="url(#linearGradient-1)" fill-rule="nonzero" opacity="0.800000012" transform="translate(98.262196, 107.500000) scale(-1, 1) translate(-98.262196, -107.500000) "></path>
            <path d="M118.960815,58 C118.960815,58 72.8927315,92.2008763 68.5636714,136.708108 C64.2346113,181.21534 148.178707,198.818951 163.982946,123.090225 C163.982946,123.090225 173.642871,116.5 169.464033,110.468767 C169.464033,110.468767 176.967192,104.81876 175.047632,103.158044 C173.128073,101.497328 107.525197,132.390241 107.525197,132.390241 L131.454592,106.483045" id="Path" stroke="#B0B0B0" transform="translate(121.881946, 116.500000) scale(-1, 1) translate(-121.881946, -116.500000) "></path>
            <path d="M1,71.2043595 C1,71.2043595 22.9711777,93.5847733 33.1523893,116 C33.1523893,116 37.2485609,76.2194539 42.2628487,71.2043595 C47.2771365,66.1892651 49.6171341,71.2043595 49.6171341,71.2043595 C49.6171341,71.2043595 67,63.4759829 67,68.9754275 C67,74.4748722 55.6342995,80.4405167 55.6342995,80.4405167 C55.6342995,80.4405167 74.2067561,188.484875 10.4961936,160.313803" id="Path" stroke="#B0B0B0" transform="translate(34.000000, 116.000000) scale(-1, 1) translate(-34.000000, -116.000000) "></path>
        </g>
    </g>
</svg>