<?xml version="1.0" encoding="UTF-8"?>
<svg width="25px" height="15px" viewBox="0 0 25 15" version="1.1" xmlns="http://www.w3.org/2000/svg" xmlns:xlink="http://www.w3.org/1999/xlink">
    <title>icon_支付(union pay) </title>
    <g id="域名" stroke="none" stroke-width="1" fill="none" fill-rule="evenodd">
        <g id="购买域名-微信支付跳转前" transform="translate(-771.000000, -707.000000)">
            <g id="编组" transform="translate(623.000000, 686.000000)">
                <rect id="矩形备份-7" stroke="#EBEEF5" x="0.5" y="0.5" width="188" height="57" rx="4"></rect>
                <g id="icon_支付(union-pay)-" transform="translate(146.000000, 14.000000)" fill-rule="nonzero">
                    <rect id="矩形" fill="#000000" opacity="0" x="0" y="0" width="28" height="28"></rect>
                    <path d="M24.9910714,22 L4.00892857,22 C2.89955357,22 2,21.1270758 2,20.0505415 L2,8.94945848 C2,7.87292419 2.89955357,7 4.00892857,7 L24.9910714,7 C26.1004464,7 27,7.87292419 27,8.94945848 L27,20.0505415 C27,21.1270758 26.1004464,22 24.9910714,22 Z" id="路径" fill="#F7F9FB"></path>
                    <path d="M18.4562661,19 L14.4705943,19 C14.1661901,19 13.9419193,18.6973716 14.013348,18.3830514 L15.7683442,10.6713293 C15.8579501,10.2773414 16.1900041,10 16.5714693,10 L20.3720409,10 C20.7783398,10 21.0776236,10.4037764 20.9821293,10.8230514 L19.2775685,18.3131722 C19.1859144,18.7161329 18.8464359,19 18.4562661,19 L18.4562661,19 Z" id="路径" fill="#007E86"></path>
                    <path d="M14.1618631,18.3830514 L16.1089636,10.6713293 C16.2083779,10.2773414 16.576779,10 17,10 L12.9617902,10 C12.4411432,10 11.9883819,10.3412387 11.8662443,10.8254985 L10.0208304,18.1342598 C9.9094864,18.5755589 10.2585727,19 10.732637,19 L14.6688761,19 C14.3314355,19 14.0826157,18.6973716 14.1618631,18.3830514 L14.1618631,18.3830514 Z" id="路径" fill="#004480"></path>
                    <path d="M10.2544713,18.1342598 L11.9772548,10.8254985 C12.0915413,10.3412387 12.5142159,10 13,10 L9.7649749,10 C9.27892564,10 8.85625105,10.3412387 8.74222967,10.8254985 L7.01944623,18.1342598 C6.91550116,18.5755589 7.24139016,19 7.6839522,19 L10.9189773,19 C10.4766804,19 10.1505263,18.575287 10.2544713,18.1342598 Z" id="路径" fill="#F7002D"></path>
                    <path d="M11.719435,13.2611653 C11.6695923,13.2677725 11.6569252,13.2911732 11.6508669,13.3352215 C11.6357214,13.4456176 11.616996,13.5554632 11.5979952,13.6653087 C11.5674288,13.8398502 11.5184123,14.0094362 11.459207,14.1762693 C11.4432353,14.2214188 11.450395,14.2428924 11.5065712,14.24069 C11.6450841,14.2357345 11.7838724,14.2357345 11.9223852,14.2351839 C11.9581838,14.2351839 11.9815905,14.225273 11.9879241,14.1867308 C12.039419,13.8695828 12.122031,13.5593174 12.1958311,13.2471249 C12.2002371,13.228129 12.2112521,13.2061049 12.1914252,13.1876596 C12.0308824,13.2132627 11.8755717,13.2405176 11.719435,13.2611653 Z M11.2265163,12.9261227 C11.1747461,12.9153859 11.1235267,12.9164871 11.0714811,12.9222685 C10.9525197,12.935483 10.8456748,12.9806325 10.7435112,13.0445026 C10.7355254,13.011191 10.7501202,12.9866891 10.7570045,12.9613613 C10.7685702,12.9195154 10.7572799,12.9002443 10.7129447,12.9098799 C10.5680983,12.9415396 10.4215995,12.9632885 10.2748255,12.9836608 C10.2326933,12.9894422 10.2205769,13.0095392 10.2167216,13.0469803 C10.2026776,13.1829795 10.1787201,13.3173269 10.1522842,13.4511237 C10.1046446,13.6925636 10.0459901,13.9315258 9.9873355,14.1704879 C9.97053772,14.2384875 9.97218996,14.2398641 10.0402072,14.2390382 C10.1635746,14.2373863 10.2869419,14.2318803 10.4100339,14.2357345 C10.468413,14.2376616 10.4860369,14.2139857 10.4962258,14.1627795 C10.5455176,13.9139064 10.600317,13.6661346 10.6474058,13.4167109 C10.6611745,13.3440312 10.6983499,13.3126468 10.7655411,13.2983311 C10.8599942,13.278234 10.9073584,13.319254 10.8949666,13.4145085 C10.8778935,13.5441758 10.8522837,13.6724665 10.8236449,13.8002067 C10.7917016,13.9422625 10.7586567,14.0843184 10.7247858,14.2318803 C10.7402067,14.2360098 10.7473664,14.2398641 10.7545261,14.2398641 C10.8971696,14.2390382 11.0395377,14.228852 11.1824566,14.2346333 C11.2229365,14.2362851 11.2325746,14.2082043 11.2383574,14.1748928 C11.2736052,13.9681409 11.3168389,13.7633162 11.3622755,13.5584915 C11.3914651,13.4274477 11.4308435,13.2975051 11.425336,13.16068 C11.4198286,13.034867 11.3490576,12.9517258 11.2265163,12.9261227 L11.2265163,12.9261227 Z M10.1930395,12.0190024 C10.1828507,12.0176259 10.173488,12.0154235 10.1641253,12.0154235 C10.0099161,12.0143223 9.85570696,12.0148729 9.70122241,12.0115693 C9.6659746,12.0107434 9.66542386,12.0308404 9.66046713,12.0536905 C9.59492823,12.3581746 9.5307662,12.6629339 9.46247357,12.9668674 C9.41786306,13.1656355 9.38674585,13.3679825 9.31487336,13.5595927 C9.23418892,13.7746036 9.07915363,13.8778419 8.85885481,13.8662792 C8.72254492,13.8591213 8.63277315,13.7735024 8.62038134,13.6386044 C8.60909103,13.5158197 8.63717912,13.395788 8.6644411,13.2790599 C8.74705316,12.9272239 8.83957866,12.5778656 8.92879968,12.2276814 C8.94614822,12.1594065 8.96542436,12.0914069 8.98525126,12.0176259 L8.35850112,12.0176259 C8.34693543,12.0691074 8.33536975,12.1194877 8.3243548,12.169868 C8.22935094,12.6056711 8.11810004,13.0378953 8.03576335,13.4764515 C8.01731333,13.574459 7.99555882,13.6741183 8.00079092,13.774053 C8.01208123,13.9953958 8.11562167,14.1253384 8.33647124,14.1900344 C8.61900447,14.272625 8.90374069,14.26354 9.18599855,14.1853543 C9.4663288,14.1074438 9.66211937,13.9329023 9.76538444,13.659252 C9.79237105,13.5873982 9.81715467,13.5141679 9.83643081,13.4398363 C9.94933396,13.0023814 10.0608602,12.5646511 10.1718358,12.1266455 C10.1803723,12.0916822 10.2004746,12.0589212 10.1930395,12.0190024 L10.1930395,12.0190024 Z M12.1996864,12.826188 C12.0611735,12.7416703 11.7863507,12.8104958 11.7029125,12.9503493 C11.6613311,13.020276 11.6773028,13.0921298 11.7464216,13.1350769 C11.7932351,13.1645343 11.8461068,13.1741698 11.920733,13.1747204 C12.0278533,13.1678379 12.1446117,13.1350769 12.2294267,13.0329399 C12.2922119,12.9575071 12.2787186,12.8740906 12.1996864,12.826188 L12.1996864,12.826188 Z M17.1630187,13.2036271 C17.0159693,13.3756909 16.9606192,13.5860217 16.9405169,13.8057127 C16.9113273,14.1256137 17.1153791,14.2717991 17.4020429,14.2786816 C17.4998005,14.2808841 17.5793835,14.2398641 17.6586911,14.1870061 C17.6545605,14.2629894 17.6559373,14.2668437 17.7253315,14.2621635 C17.8602645,14.2528033 17.9951975,14.2519773 18.1301305,14.2544551 C18.1722627,14.255281 18.1909881,14.2412406 18.1981478,14.1969169 C18.2386277,13.9505216 18.2884703,13.7057781 18.3462988,13.4626864 C18.3831988,13.3076913 18.4203742,13.152421 18.4567235,12.9974259 C18.4630571,12.970171 18.4771012,12.9324546 18.425331,12.9404384 C18.2678173,12.9649403 18.110579,12.9927458 17.9530654,13.0180736 C17.9249773,13.0224784 17.913687,13.0381706 17.9081795,13.0698304 C17.8332779,12.9811831 17.749289,12.9252968 17.6372119,12.940989 C17.4466535,12.967418 17.2872122,13.0582677 17.1630187,13.2036271 L17.1630187,13.2036271 Z M17.5780066,13.3321932 C17.6176604,13.2652948 17.6898083,13.2402423 17.7520427,13.2595135 C17.8082189,13.2768575 17.8426406,13.3473348 17.8420898,13.4665406 C17.8129002,13.5871229 17.7977547,13.7335836 17.7313897,13.8660039 C17.6942143,13.9397848 17.6256462,13.970894 17.5474402,13.9783271 C17.4813505,13.9846591 17.4320587,13.9400601 17.4356385,13.8613237 C17.4444505,13.6754949 17.4816259,13.4946214 17.5780066,13.3321932 L17.5780066,13.3321932 Z M13.3099924,14.7915694 C13.2350908,14.7932212 13.1466959,14.7640392 13.0894182,14.8028567 C13.0351696,14.8394719 13.0076323,14.9212366 12.9773412,14.9873091 C12.9338322,15.082013 12.8704963,15.134871 12.7614484,15.1191788 C12.7402446,15.1161505 12.7190408,15.1180776 12.711055,15.1456078 C12.6862714,15.2301255 12.6603863,15.3143679 12.6322982,15.4079706 C12.7127072,15.4079706 12.7821014,15.4101731 12.8509448,15.40742 C12.973486,15.4024646 13.0839108,15.3600681 13.17919,15.2835341 C13.208655,15.2598581 13.2370184,15.2507732 13.2736431,15.2507732 C13.4567665,15.2518744 13.6398899,15.2515991 13.8230133,15.2507732 C13.8444924,15.2507732 13.8742328,15.2609594 13.8835955,15.231502 C13.9122343,15.141203 13.937844,15.050078 13.9670336,14.9517952 L13.4920143,14.9517952 C13.5085367,14.8934311 13.5490166,14.8510346 13.5616838,14.7910188 C13.4752165,14.7910188 13.3926045,14.7896422 13.3099924,14.7915694 L13.3099924,14.7915694 Z M15.6793062,14.2409653 C15.7619183,14.2409653 15.7613675,14.2412406 15.7773392,14.1611277 C15.8202974,13.9463921 15.864908,13.7319318 15.918055,13.5193986 C15.931273,13.4665406 15.9568827,13.4376339 16.018291,13.4401116 C16.1609345,13.4456176 16.303578,13.4376339 16.4448446,13.4183627 C16.6326493,13.3924844 16.8083376,13.333845 16.9553871,13.2083073 C17.1778889,13.0183489 17.2841831,12.7700264 17.3026331,12.4842629 C17.318054,12.2472278 17.1894546,12.0875526 16.9573147,12.0357959 C16.8306429,12.0077151 16.7012173,12.0052373 16.5723425,12.0019337 C16.3024765,11.9956018 16.0326104,12.0203789 15.7627444,12.0002819 C15.7131771,11.996703 15.7098727,12.0278121 15.7038144,12.0589212 C15.5837516,12.662108 15.4331223,13.258137 15.2868989,13.8549918 C15.2563325,13.9797036 15.2274182,14.1049661 15.1951995,14.24069 C15.3637281,14.2409653 15.5215172,14.24069 15.6793062,14.2409653 L15.6793062,14.2409653 Z M16.1895733,12.3460613 C16.2515324,12.3350492 16.3115638,12.3573487 16.3726967,12.3562474 C16.4206117,12.3554215 16.4685267,12.3628547 16.5164417,12.3675348 C16.6241127,12.3782716 16.7003912,12.4600363 16.7078263,12.5715336 C16.7254502,12.8394025 16.5247029,13.0648749 16.2567645,13.0769882 C16.1807614,13.0802918 16.1047583,13.0951581 16.0218709,13.0800165 C16.0783224,12.8333459 16.1336725,12.5910801 16.1895733,12.3460613 L16.1895733,12.3460613 Z M12.9891823,14.2500502 C13.2108579,14.2137104 13.3942567,14.1148769 13.5071599,13.9130805 C13.6082219,13.7319318 13.6621951,13.5367426 13.6583399,13.3277884 C13.6550354,13.1449878 13.555901,13.0158712 13.3807634,12.9599848 C13.2722662,12.9252968 13.16074,12.9206166 13.0492137,12.929151 C12.7834782,12.9495234 12.5675854,13.0574418 12.4354061,13.2994323 C12.3472866,13.4607593 12.3057052,13.6355761 12.2963425,13.7875428 C12.2900089,14.0518328 12.3998829,14.1919615 12.6276168,14.2412406 C12.7474043,14.2673943 12.8685687,14.269872 12.9891823,14.2500502 L12.9891823,14.2500502 Z M12.9024396,13.3498125 C12.9286001,13.2925497 12.9660509,13.2446472 13.0321405,13.2278537 C13.0982302,13.2110603 13.1409131,13.234461 13.1593631,13.2997076 C13.1750594,13.3550433 13.1662474,13.4101037 13.1574355,13.4654394 C13.140087,13.5736331 13.1153033,13.680175 13.0759249,13.7828627 C13.0607794,13.8227815 13.0412279,13.8599472 13.0142413,13.8929835 C12.9655001,13.9521734 12.9038165,13.9772259 12.8531477,13.9538252 C12.7922902,13.9257444 12.7867827,13.8698581 12.7873335,13.8112188 C12.804682,13.6520942 12.8355238,13.4962732 12.9024396,13.3498125 L12.9024396,13.3498125 Z M13.7241542,14.24069 C13.8475215,14.2362851 13.9708889,14.2321556 14.0942562,14.2360098 C14.1556645,14.2379369 14.1787959,14.2172893 14.1887093,14.15865 C14.2305661,13.9119793 14.2892207,13.6688876 14.3368603,13.4233182 C14.3533827,13.3385252 14.3988193,13.3076913 14.4726194,13.2944768 C14.5458688,13.2815376 14.5907547,13.3184281 14.5863487,13.3916584 C14.5841457,13.4279983 14.5789136,13.4643382 14.5731308,13.5004028 C14.53568,13.73028 14.4786776,13.9560276 14.426632,14.1828765 C14.4227768,14.1993947 14.4134141,14.2153622 14.4247044,14.2335321 C14.4293858,14.2351839 14.4346179,14.2390382 14.43985,14.2390382 C14.5824935,14.2390382 14.7251369,14.2382122 14.8677804,14.2382122 C14.9132171,14.2382122 14.9258842,14.2084796 14.9313917,14.1713138 C14.9603059,13.9813554 15.0038149,13.79415 15.0431934,13.6061187 C15.0743106,13.4580062 15.1227763,13.3123715 15.1178196,13.157927 C15.1142397,13.0409236 15.047324,12.9566812 14.9344208,12.929151 C14.8776939,12.9153859 14.8204162,12.91456 14.7623124,12.9217179 C14.645554,12.9360336 14.5387091,12.9767783 14.4362701,13.043952 C14.4271828,13.0076121 14.4417776,12.9828349 14.4475604,12.9572318 C14.4577493,12.911807 14.4417776,12.9021714 14.3993701,12.9098799 C14.2553497,12.935483 14.1113294,12.9608107 13.9667583,12.9825596 C13.9257276,12.9886162 13.9125097,13.0065109 13.9081037,13.0450532 C13.8970888,13.1367288 13.8838708,13.228129 13.8678992,13.319254 C13.8172304,13.6094224 13.7461841,13.8949106 13.6759638,14.1806741 C13.6638474,14.2291273 13.6754131,14.2423418 13.7241542,14.24069 L13.7241542,14.24069 Z M19.9935832,12.9277745 C19.9770608,12.9057503 19.9553062,12.9195154 19.935204,12.9233697 C19.8104598,12.9459444 19.6865417,12.9737499 19.5598699,12.9858632 C19.5097519,12.9905434 19.4775332,13.0114663 19.4577063,13.0621219 C19.3907905,13.2336351 19.2905546,13.3889054 19.2073918,13.5535361 C19.2104209,13.4618605 19.1933477,13.3726626 19.1916955,13.2826388 C19.1897679,13.1805018 19.1837096,13.07864 19.1779268,12.9767783 C19.1762745,12.9453938 19.1710425,12.9085034 19.1264319,12.9178636 C18.9832377,12.9475962 18.8394927,12.9734746 18.695197,12.9960494 C18.6621522,13.0012801 18.651688,13.0233043 18.658297,13.0555146 C18.6795007,13.1573764 18.6883127,13.26089 18.7029075,13.3635776 C18.740909,13.6339242 18.772577,13.9050968 18.8020419,14.1765446 C18.8061725,14.2137104 18.8108539,14.2514267 18.788824,14.2885925 C18.6616014,14.504154 18.5398863,14.7227438 18.4046779,14.9336252 C18.3713577,14.9859326 18.3347331,15.0184182 18.2697449,15.0101592 C18.2474397,15.0074062 18.222656,15.0060297 18.2135687,15.0368635 C18.1890605,15.1194541 18.1640015,15.2020447 18.1364641,15.2937203 C18.2383523,15.3091372 18.3306025,15.3047324 18.4225772,15.3044571 C18.5748588,15.3044571 18.6932694,15.2436153 18.7700986,15.1070655 C18.8653778,14.9377547 18.9653384,14.7709217 19.0584147,14.6002344 C19.3552673,14.0559623 19.6697439,13.5213257 19.9792637,12.9842114 C19.9886264,12.967418 20.0109317,12.9508999 19.9935832,12.9277745 L19.9935832,12.9277745 Z M13.3389066,16.6831697 C13.2551931,16.6944571 13.1717549,16.7120764 13.0863891,16.6947324 C13.0450831,16.6861981 13.0266331,16.6721576 13.0431555,16.6245304 C13.0773018,16.5245958 13.1070421,16.422734 13.1348549,16.3208722 C13.1447683,16.2842571 13.1610153,16.2721438 13.1984661,16.2726944 C13.3256887,16.2748968 13.4531866,16.2737956 13.5804092,16.273245 C13.6021637,16.273245 13.6283242,16.2804028 13.6376869,16.2487431 C13.6641228,16.161197 13.690834,16.073651 13.7208497,15.9756435 L13.2403229,15.9756435 C13.2656573,15.8930529 13.2882379,15.8198225 13.3116447,15.7432885 L13.3769082,15.7432885 C13.4964203,15.7432885 13.6162078,15.7435638 13.7357199,15.7430132 C13.7536192,15.7430132 13.7773013,15.7512723 13.7855625,15.7259445 C13.8136506,15.6389491 13.8406372,15.5519536 13.8678992,15.4657841 C13.8563335,15.4605533 13.8527536,15.4578003 13.8494491,15.4578003 C13.4732889,15.4569744 13.0971287,15.4564238 12.7209685,15.4561483 C12.7058229,15.4561483 12.6884744,15.4558732 12.6826915,15.474869 C12.6557049,15.5618645 12.6295444,15.6491352 12.6003548,15.7449404 L12.8669164,15.7449404 C12.8468142,15.8123894 12.8264365,15.8726805 12.811291,15.9340729 C12.8030298,15.9676597 12.7856812,15.9764694 12.7542886,15.9756435 C12.6945326,15.9739917 12.6347765,15.9750929 12.5750205,15.9753682 C12.5538167,15.9753682 12.5309607,15.9731657 12.5229749,16.0001454 C12.4959883,16.0898938 12.4695524,16.1796423 12.4406382,16.2762733 L12.706649,16.2762733 C12.6548788,16.4480618 12.6039347,16.613243 12.5551936,16.7789748 C12.5298592,16.8651444 12.5832817,16.9576459 12.6702997,16.9802206 C12.6981125,16.9873785 12.7270267,16.9937104 12.7556655,16.9939857 C12.9368613,16.9959129 13.1183324,16.9961882 13.2995282,16.9967388 C13.316326,16.9967388 13.3367036,17.0000424 13.343588,16.9782935 C13.3736037,16.8800107 13.4030687,16.7811773 13.4330844,16.6804167 C13.3953582,16.6729836 13.3672701,16.6793155 13.3389066,16.6831697 L13.3389066,16.6831697 Z M15.6936256,14.8507593 C15.6985823,14.8336906 15.7118003,14.8157959 15.698307,14.7937718 C15.6881181,14.7926706 15.6768278,14.7901928 15.6655375,14.7901928 C15.4667178,14.7907435 15.2676228,14.783035 15.0696292,14.794873 C14.894767,14.8053345 14.7212817,14.8380954 14.5786382,14.9559247 C14.568174,14.964459 14.5577098,14.9779488 14.5384337,14.9716169 C14.55413,14.9146294 14.5692755,14.859569 14.5877256,14.7934965 C14.4599522,14.7934965 14.3426431,14.7951483 14.225334,14.7926706 C14.1834772,14.7918447 14.1642011,14.8053345 14.15236,14.8460792 C14.0978361,15.0346611 14.0400076,15.2221418 13.9838314,15.4101731 C13.8450432,15.8746076 13.7054288,16.3390422 13.5680174,16.803752 C13.5413062,16.8940511 13.5922503,16.9675567 13.6856019,16.983249 C13.7120378,16.9876538 13.7390244,16.9912327 13.766011,16.9917833 C13.9028716,16.995087 14.0397322,16.9983906 14.1768683,16.9997671 C14.3109752,17.0011436 14.312352,17.000593 14.3487013,16.8720269 C14.3677021,16.8048532 14.396341,16.739882 14.4021238,16.6611456 C14.3164826,16.6699552 14.2366243,16.6790402 14.1564906,16.6864734 C14.0658927,16.6947324 14.0455151,16.671607 14.0708495,16.5851622 C14.1275764,16.3932767 14.1873325,16.2022171 14.2426825,16.0100562 C14.2536975,15.9715139 14.2715968,15.965182 14.3076707,15.9654573 C14.558536,15.9668338 14.8094012,15.9682103 15.0599911,15.9640808 C15.2067652,15.9616031 15.3229729,15.8980083 15.3959468,15.7653127 C15.429267,15.704471 15.4559783,15.6406009 15.4760805,15.5739778 C15.5493299,15.3330885 15.6220285,15.0921992 15.6936256,14.8507593 L15.6936256,14.8507593 Z M14.9167969,15.7431928 C14.7262384,15.7443658 14.53568,15.7435838 14.3412663,15.7435838 C14.3401648,15.6884566 14.3561364,15.6497502 14.3630208,15.6075251 C14.3677021,15.5785931 14.3792678,15.5676458 14.3999208,15.5676458 C14.6039726,15.5692097 14.8082997,15.5699917 15.0123515,15.5711646 C15.0159314,15.5711646 15.0192359,15.5754653 15.0228157,15.5778111 C15.0241926,15.7142608 15.0073948,15.7424109 14.9167969,15.7431928 Z M15.140951,15.2381093 C15.1335159,15.2650889 15.1128629,15.2648136 15.0905576,15.2648136 C15.0095978,15.2645383 14.928638,15.2637124 14.8476782,15.2659148 C14.7138466,15.2694937 14.5913054,15.3124408 14.4773008,15.3807157 C14.4624306,15.3895254 14.4475604,15.3980598 14.4326903,15.4065941 C14.4313134,15.40742 14.4291104,15.4065941 14.4211246,15.4060435 C14.4483866,15.3176716 14.4756485,15.2304008 14.501809,15.1431301 C14.5073165,15.1252354 14.5180561,15.1180776 14.5354046,15.1180776 L15.1750973,15.1180776 C15.1618793,15.1648789 15.1511398,15.2012188 15.140951,15.2381093 L15.140951,15.2381093 Z" id="形状" fill="#FFFFFF"></path>
                    <path d="M17.9096469,15.537428 C17.6910539,15.537428 17.4727146,15.5371797 17.2541216,15.5379245 C17.2361169,15.5379245 17.2110116,15.5284912 17.2026432,15.5528191 C17.1752557,15.6339947 17.147361,15.7149221 17.1288491,15.8050345 L17.5802359,15.8050345 C17.5713603,15.8633717 17.5482838,15.9125239 17.5356044,15.9641586 C17.5274896,15.9974232 17.5110064,16.0080977 17.4765184,16.0076012 C17.3504851,16.0058635 17.2241982,16.0066082 17.0981649,16.0071047 C17.0816817,16.0071047 17.0591124,15.9999056 17.0515047,16.0217511 C17.0274138,16.092997 17.0007871,16.1637464 16.9865862,16.2464114 L17.3864946,16.2464114 C17.2878488,16.3826971 17.1922461,16.5078119 17.104251,16.6381397 C17.0454186,16.7250249 16.9531125,16.7543177 16.8374764,16.730238 C16.8379835,16.6962287 16.8633423,16.665943 16.856749,16.6304441 C16.8275864,16.6143083 16.7928448,16.6339196 16.7652037,16.6172872 C16.7583569,16.6031374 16.7652037,16.5922146 16.768754,16.5805472 C16.8963088,16.16747 17.0243708,15.7546411 17.1506577,15.3413156 C17.161562,15.3053203 17.1770308,15.2914187 17.2165906,15.2921634 C17.3147292,15.2939011 17.2997675,15.3055686 17.3281693,15.2137185 C17.3296909,15.2085053 17.3304516,15.1995686 17.3416095,15.2000651 C17.3416095,15.2263789 17.3413559,15.2524444 17.3416095,15.27851 C17.3428775,15.3996528 17.4057673,15.4661821 17.5300255,15.4706505 C17.6276569,15.4743741 17.7252883,15.4716435 17.8231733,15.4713952 C17.8368671,15.4713952 17.8533503,15.4741259 17.8591828,15.4567488 C17.8858096,15.3755732 17.9149722,15.2946458 17.9332306,15.2109878 C17.8822594,15.1946037 17.825202,15.2248894 17.7935035,15.1898871 C17.7615514,15.1548847 17.774738,15.1000229 17.7754988,15.0538496 C17.7760059,15.0161166 17.7607907,15.0071799 17.7252883,15.0066834 C17.4268151,15.0039527 17.1288491,15.0131377 16.8308831,15.0280323 C16.7264048,15.0332454 16.6280126,15.058318 16.5400175,15.1161588 C16.5321563,15.1213719 16.5237879,15.1300604 16.5103477,15.124599 C16.5111085,15.0861213 16.5397639,15.0516154 16.5319027,15.0061869 C16.4525296,15.0061869 16.3746781,15.0049457 16.2968265,15.0066834 C16.2423051,15.0079246 16.1766257,14.9853344 16.1360516,15.0168614 C16.0980134,15.0464023 16.0990278,15.1114421 16.0838125,15.1610908 C15.9367314,15.6372219 15.790411,16.1133529 15.6443443,16.5897322 C15.6339472,16.6234933 15.6243108,16.6527861 15.5784114,16.6450905 C15.5596459,16.6418633 15.5446842,16.6478212 15.5380909,16.6694184 C15.5147608,16.7471186 15.4899091,16.8243223 15.4625216,16.9112075 L16.2514342,16.9112075 C16.2623385,16.9434792 16.2357118,16.9648281 16.2499127,16.9951139 C16.3713814,16.9951139 16.495386,16.9948656 16.6193906,16.9953621 C16.6373953,16.9953621 16.6427207,16.9841911 16.6488068,16.970786 C16.6792374,16.9030155 16.6827876,16.9017743 16.7624143,16.9186549 C16.7695147,16.9439757 16.7436488,16.9668141 16.755821,16.9970998 C16.86106,17.0018164 16.9670599,17.0000787 17.0733133,16.9968516 C17.1876815,16.9933761 17.2782125,16.9452169 17.3469349,16.8580834 C17.4098247,16.7783973 17.4691643,16.6959804 17.5305327,16.6148048 C17.5411834,16.6006549 17.5492982,16.5827814 17.5716139,16.5753341 C17.5842933,16.6565097 17.5972263,16.733217 17.607877,16.8104207 C17.6162454,16.8712403 17.6459152,16.9131935 17.6996759,16.9479476 C17.766116,16.9908937 17.8386422,16.9849359 17.9101541,16.990149 C18.046838,17.0000787 18.0475988,16.9985893 18.0871586,16.8712403 C18.1044025,16.815882 18.1277327,16.7620132 18.1343259,16.7041725 C18.1074456,16.6932497 18.0841155,16.6974699 18.0612926,16.6969734 C17.9816659,16.6949875 17.9765941,16.6895261 17.9654363,16.6123224 C17.9535176,16.5299055 17.937288,16.4482334 17.9253693,16.3658166 C17.9215655,16.3390063 17.9091397,16.3308142 17.8835273,16.3313107 C17.8399101,16.3323037 17.7960394,16.331559 17.7498864,16.331559 C17.7871638,16.2558447 17.8054222,16.243929 17.8794699,16.243929 C17.9984027,16.243929 18.1175891,16.2441772 18.236522,16.2436808 C18.2530052,16.2436808 18.2763353,16.2513763 18.2834358,16.2300274 C18.3077802,16.1587815 18.3293352,16.0865426 18.354694,16.0066082 L17.9233406,16.0066082 C17.9418526,15.9485192 17.9608717,15.898374 17.9735511,15.8467394 C17.9821731,15.8122335 18.0004314,15.8042898 18.0336515,15.8047862 C18.1472589,15.8062757 18.26112,15.805531 18.3747275,15.8052827 C18.3917179,15.8052827 18.4145408,15.8109923 18.4213877,15.7901399 C18.4480144,15.708716 18.4726125,15.6265474 18.5,15.5376762 L18.4317848,15.5376762 C18.2578234,15.537428 18.0838619,15.537428 17.9096469,15.537428 L17.9096469,15.537428 Z M16.3617451,16.6056198 C16.3574341,16.6195214 16.3480513,16.625231 16.3343575,16.625231 L16.046535,16.625231 C16.0756977,16.531395 16.102578,16.445751 16.1289512,16.3598587 C16.1335158,16.3447159 16.1418842,16.3367721 16.1591282,16.3370147 C16.2509271,16.3375168 16.3429795,16.3372686 16.4439076,16.3372686 C16.4149986,16.4311046 16.3881182,16.5182381 16.3617451,16.6056198 L16.3617451,16.6056198 Z M16.5407783,16.0252265 C16.5369744,16.0376387 16.5293668,16.0473201 16.5151659,16.0483131 C16.4043479,16.0560087 16.3021519,16.0922522 16.1926018,16.1473623 C16.2275969,16.0351562 16.2577739,15.9373483 16.2882045,15.8397886 C16.2932763,15.8234045 16.295305,15.8052827 16.3201566,15.8052827 C16.4137306,15.8057792 16.5073046,15.805531 16.6082327,15.805531 C16.5843954,15.8837277 16.5625868,15.9544771 16.5407783,16.0252265 Z M16.7007924,15.5076388 C16.6957206,15.5247676 16.6830412,15.5349456 16.6660508,15.535442 C16.5592902,15.537428 16.4626731,15.5766505 16.3564197,15.6200931 C16.3901469,15.5123554 16.4210847,15.414051 16.4515152,15.3152501 C16.456587,15.298866 16.4667305,15.2934046 16.4827066,15.2934046 L16.7659645,15.2934046 C16.742888,15.3691189 16.7218402,15.4383788 16.7007924,15.5076388 L16.7007924,15.5076388 Z M15.2069048,16.1056574 C15.0684457,16.1064021 15.1001442,16.0892733 15.0595701,16.2094232 C15.0506945,16.2362335 15.0415654,16.2650297 15.0070774,16.2672639 C14.9687856,16.2697463 14.9302402,16.2677604 14.8932163,16.2677604 C14.8800297,16.2290344 14.892202,16.1965145 14.8932163,16.1639946 C14.8939771,16.140908 14.8916948,16.1222897 14.860757,16.1222897 C14.7491783,16.1227862 14.6375995,16.1225379 14.52526,16.1225379 C14.5206954,16.1329642 14.5181595,16.1359431 14.5179059,16.1391702 C14.5019299,16.3767393 14.5090303,16.615053 14.5001547,16.8528703 C14.4971117,16.9365284 14.5389537,16.9740132 14.6254273,16.9836947 C14.7722548,17.0000787 14.9195895,16.9926314 15.0669242,16.9941209 C15.0834074,16.9943691 15.100905,16.9938726 15.1067375,16.9755026 C15.1333643,16.8918446 15.1589767,16.8079382 15.1845891,16.7250249 C15.1594838,16.712861 15.1394504,16.7168329 15.1204313,16.7175776 C15.0600773,16.72006 14.9999769,16.7242802 14.9398765,16.7272591 C14.9089388,16.7287486 14.878001,16.72006 14.8759723,16.6867954 C14.8716613,16.6200179 14.8747044,16.5529922 14.8747044,16.4862147 C14.955599,16.4772779 15.0278716,16.4735542 15.1006514,16.472313 C15.1889,16.4705753 15.2659908,16.4383037 15.3151869,16.3660648 C15.3659045,16.2910953 15.3702155,16.2007346 15.3874595,16.1111187 C15.3233017,16.1004443 15.2649765,16.1054091 15.2069048,16.1056574 L15.2069048,16.1056574 Z" id="形状" fill="#FFFFFF"></path>
                </g>
            </g>
        </g>
    </g>
</svg>