<?xml version="1.0" encoding="UTF-8"?>
<svg width="116px" height="28px" viewBox="0 0 116 28" version="1.1" xmlns="http://www.w3.org/2000/svg" xmlns:xlink="http://www.w3.org/1999/xlink">
    <title>Paypal</title>
    <g id="域名" stroke="none" stroke-width="1" fill="none" fill-rule="evenodd">
        <g id="购买域名-微信支付跳转前" transform="translate(-858.000000, -701.000000)">
            <g id="编组-4" transform="translate(828.000000, 686.000000)">
                <rect id="矩形备份-8" stroke="#EBEEF5" x="0.5" y="0.5" width="174" height="57" rx="4"></rect>
                <g id="Paypal" transform="translate(30.000000, 15.000000)" fill-rule="nonzero">
                    <rect id="矩形" fill="#000000" opacity="0" x="0" y="0" width="28" height="28"></rect>
                    <path d="M88.2566946,6 L81.6131382,6 C81.1662623,6 80.7789697,6.32038834 80.6895946,6.75728155 L78.0083386,23.3883495 C77.9487551,23.7087379 78.2168807,24 78.5445898,24 L81.9408473,24 C82.2685564,24 82.536682,23.7669903 82.5664737,23.4757281 L83.3410587,18.7572815 C83.4006422,18.3203883 83.7879347,18 84.2646025,18 L86.3500237,18 C90.7294084,18 93.231914,15.9320388 93.8873321,11.8252427 C94.1852494,10.0485437 93.8873321,8.62135922 93.0531636,7.63106796 C92.1594116,6.55339805 90.4910746,6 88.2566946,6 L88.2566946,6 Z M89.0312797,12.0582524 C88.6737789,14.3883495 86.8564832,14.3883495 85.098771,14.3883495 L84.0858521,14.3883495 L84.8008536,10.0485437 C84.8306454,9.78640775 85.0689792,9.58252426 85.3371048,9.58252426 L85.7839808,9.58252426 C86.9756501,9.58252426 88.107736,9.58252426 88.7035706,10.2524272 C89.0610714,10.6601942 89.1504466,11.2427184 89.0312797,12.0582524 L89.0312797,12.0582524 Z" id="形状" fill="#009CDE"></path>
                    <path d="M44.0511247,6 L37.5407219,6 C37.1028024,6 36.7232722,6.31578946 36.6356883,6.74641148 L34.0081715,23.138756 C33.9497822,23.4545455 34.2125339,23.7416268 34.5336748,23.7416268 L37.6283058,23.7416268 C38.0662253,23.7416268 38.4457555,23.4258374 38.5333394,22.9952153 L39.2340105,18.5741627 C39.2923998,18.1435407 39.67193,17.8277512 40.1390441,17.8277512 L42.1826683,17.8277512 C46.4742791,17.8277512 48.9266282,15.7894737 49.5689101,11.7416268 C49.8608564,9.99043062 49.5689101,8.58373206 48.7514604,7.6076555 C47.8756214,6.54545454 46.2407221,6 44.0511247,6 Z M44.8101851,11.9712919 C44.4598496,14.2679426 42.678977,14.2679426 40.9564938,14.2679426 L39.9638763,14.2679426 L40.6645475,9.99043062 C40.6937421,9.73205741 40.9272992,9.53110047 41.1900508,9.53110047 L41.6279703,9.53110047 C42.7957556,9.53110047 43.9051516,9.53110047 44.4890442,10.1913876 C44.8393798,10.5933014 44.9269637,11.1674641 44.8101851,11.9712919 L44.8101851,11.9712919 Z M63.4655547,11.8851674 L60.3417291,11.8851674 C60.0789774,11.8851674 59.8454203,12.0861244 59.8162257,12.3444976 L59.6702526,13.2057416 L59.4658902,12.8899521 C58.7944136,11.9425837 57.3054874,11.5980861 55.7873666,11.5980861 C52.3424001,11.5980861 49.4229369,14.15311 48.8390443,17.7416268 C48.547098,19.5215311 48.9558228,21.2440191 50.0068296,22.4497608 C50.9702524,23.5406699 52.3132055,24 53.9189102,24 C56.6924002,24 58.210521,22.2488038 58.210521,22.2488038 L58.0645478,23.1100479 C58.0061586,23.4258373 58.2689103,23.7129187 58.5900512,23.7129187 L61.3927358,23.7129187 C61.8306553,23.7129187 62.2101855,23.3971292 62.2977694,22.9665072 L63.991058,12.4880383 C64.0494473,12.2009569 63.8158903,11.8851674 63.4655547,11.8851674 L63.4655547,11.8851674 Z M59.1447492,17.8564593 C58.8528029,19.6076555 57.4222659,20.784689 55.6413934,20.784689 C54.7363598,20.784689 54.0064941,20.4976076 53.53938,19.9521531 C53.0722659,19.4066986 52.8970981,18.6602871 53.0430712,17.7990431 C53.3350176,16.076555 54.7655545,14.8421053 56.5172324,14.8421053 C57.3930713,14.8421053 58.1229371,15.1291866 58.5900512,15.6746412 C59.08636,16.2488038 59.2907224,16.9952153 59.1447492,17.8564593 L59.1447492,17.8564593 Z" id="形状" fill="#003087"></path>
                    <path d="M107.509449,12.2777778 L104.642187,12.2777778 C104.401016,12.2777778 104.186641,12.4722222 104.159844,12.7222222 L104.02586,13.5555556 L103.838282,13.25 C103.221954,12.3333333 101.855316,12 100.46188,12 C97.2998523,12 94.620168,14.4722222 94.0842312,17.9444444 C93.8162627,19.6666667 94.1914185,21.3333333 95.1561049,22.5 C96.0404007,23.5555556 97.2730555,24 98.7468818,24 C101.292582,24 102.686018,22.3055556 102.686018,22.3055556 L102.552033,23.1388889 C102.49844,23.4444444 102.739611,23.7222222 103.034377,23.7222222 L105.606873,23.7222222 C106.008826,23.7222222 106.357185,23.4166667 106.437576,23 L107.991792,12.8611111 C108.045386,12.5833333 107.831011,12.2777778 107.509449,12.2777778 L107.509449,12.2777778 Z M103.543517,18.0555556 C103.275548,19.75 101.962503,20.8888889 100.327895,20.8888889 C99.4971934,20.8888889 98.8272723,20.6111111 98.3985228,20.0833333 C97.9697733,19.5555556 97.8089923,18.8333333 97.9429765,18 C98.2109449,16.3333333 99.5239902,15.1388889 101.131801,15.1388889 C101.935706,15.1388889 102.605627,15.4166667 103.034377,15.9444445 C103.489923,16.5 103.677501,17.2222222 103.543517,18.0555556 L103.543517,18.0555556 Z" id="形状" fill="#009CDE"></path>
                    <path d="M77.5147002,12 L74.610699,12 C74.339297,12 74.067895,12.1436266 73.9050539,12.4021544 L69.8883045,18.6642729 L68.178472,12.6606822 C68.0699112,12.2872532 67.7442288,12.0287253 67.364266,12.0287253 L64.5145452,12.0287253 C64.1617226,12.0287253 63.9174608,12.4021544 64.0260216,12.7468582 L67.228565,22.6858169 L64.216003,27.1669659 C63.9717412,27.5116696 64.216003,28 64.623106,28 L67.5271072,28 C67.7985092,28 68.0699112,27.8563734 68.2056122,27.6265709 L77.8675228,12.8617594 C78.166065,12.4883304 77.9218032,12 77.5147002,12 Z" id="路径" fill="#003087"></path>
                    <path d="M112.365175,6.4660194 L110.007252,23.3883495 C109.95543,23.7087379 110.188631,24 110.473655,24 L112.857488,24 C113.246157,24 113.583003,23.6796117 113.660736,23.2427184 L115.992748,6.61165049 C116.04457,6.29126215 115.811369,6 115.526345,6 L112.857488,6 C112.598376,6.02912622 112.391086,6.2038835 112.365175,6.4660194 Z" id="路径" fill="#009CDE"></path>
                    <path d="M21.6077918,7.10703365 C21.9533169,4.93781857 21.6077918,3.45361876 20.4272478,2.11213047 C19.1027351,0.627930687 16.7416471,0 13.7183027,0 L4.93620716,0 C4.33153829,0 3.78445694,0.456676868 3.69807566,1.05606525 L0.0124748922,24.0611621 C-0.0739063873,24.517839 0.300412463,24.9174312 0.761112538,24.9174312 L6.17433865,24.9174312 L5.80001982,27.2579001 C5.7424323,27.6574924 6.05916363,28 6.46227622,28 L11.0404834,28 C11.5875648,28 12.0482649,27.6004077 12.1346461,27.0866463 L12.1922337,26.8583079 L13.0560463,21.4352701 L13.1136338,21.1498471 C13.2000151,20.6075433 13.6607152,20.2364934 14.2077966,20.2364934 L14.8988467,20.2364934 C19.3330851,20.2364934 22.7883358,18.4668705 23.7961173,13.3007136 C24.2280236,11.1314985 23.9976736,9.33333335 22.8747171,8.07747198 C22.529192,7.70642203 22.0972857,7.3639144 21.6077918,7.10703365" id="路径" fill="#009CDE"></path>
                    <path d="M21.8710419,6.84536083 C22.2207765,4.75601376 21.8710419,3.32646049 20.6761152,2.03436425 C19.3354657,0.604811 16.9456123,0 13.8854342,0 L4.9963455,0 C4.38430988,0 3.83056338,0.43986255 3.74312971,1.01718214 L0.0126268752,23.1752577 C-0.0748067967,23.6151203 0.30407242,24 0.770385253,24 L6.24956127,24 L7.6193553,15.7525773 L7.59021074,16 C7.67764441,15.4226804 8.20224636,14.9828179 8.84342653,14.9828179 L11.4664363,14.9828179 C16.5958777,14.9828179 20.6178261,13.0309278 21.7836082,7.34020618 L21.8710419,6.84536083" id="路径" fill="#012169"></path>
                    <path d="M9.13487205,6.87285222 C9.19316117,6.51546391 9.4263176,6.24054981 9.74690767,6.07560136 C9.89263043,6.02061853 10.0674977,5.96563573 10.2132205,5.96563573 L17.2079133,5.96563573 C18.0239608,5.96563573 18.8108638,6.02061856 19.5103331,6.13058418 C19.7143449,6.1580756 19.9183568,6.18556701 20.0932241,6.24054983 C20.297236,6.26804125 20.4721033,6.32302407 20.6469706,6.37800687 L20.9092716,6.46048108 C21.2590062,6.57044671 21.5795963,6.70790377 21.8710419,6.84536083 C22.2207765,4.75601376 21.8710419,3.32646049 20.6761152,2.03436425 C19.3354657,0.604811 16.9456123,0 13.8854342,0 L4.9963455,0 C4.38430988,0 3.83056338,0.43986255 3.74312971,1.01718214 L0.0126268752,23.1752577 C-0.0748067967,23.6151203 0.30407242,24 0.770385253,24 L6.24956127,24 L7.6193553,15.7525773 L9.13487205,6.87285222 Z" id="路径" fill="#003087"></path>
                </g>
            </g>
        </g>
    </g>
</svg>