<?xml version="1.0" encoding="UTF-8"?>
<svg width="18px" height="18px" viewBox="0 0 18 18" version="1.1" xmlns="http://www.w3.org/2000/svg" xmlns:xlink="http://www.w3.org/1999/xlink">
    <title>attachment_default attachment</title>
    <g id="页面-1" stroke="none" stroke-width="1" fill="none" fill-rule="evenodd">
        <g id="邮件附件" transform="translate(-216.000000, -24.000000)">
            <g id="编组-6" transform="translate(216.000000, 24.000000)">
                <rect id="矩形" fill-opacity="0" fill="#FFFFFF" opacity="0" x="0" y="0" width="18" height="18"></rect>
                <path d="M3,0 L12.1715729,0 C12.7020059,-9.74389576e-17 13.2107137,0.210713681 13.5857864,0.585786438 L16.4142136,3.41421356 C16.7892863,3.78928632 17,4.29799415 17,4.82842712 L17,16 C17,17.1045695 16.1045695,18 15,18 L3,18 C1.8954305,18 1,17.1045695 1,16 L1,2 C1,0.8954305 1.8954305,2.02906125e-16 3,0 Z" id="矩形" fill="#BFC1C7"></path>
                <path d="M12.3715468,9.55355295 L13,10.1891173 L10.3110738,12.9091551 C9.73084797,13.498743 8.9382529,13.8307685 8.11104321,13.8307685 C7.28383352,13.8307685 6.49123845,13.498743 5.91101265,12.9091551 C4.69632912,11.6806936 4.69632912,9.68911039 5.91101265,8.46020443 L8.73949638,5.60016471 C9.15389346,5.17900984 9.72000776,4.94183106 10.3108515,4.94183106 C10.9016953,4.94183106 11.4678096,5.17900984 11.8822067,5.60016471 C12.7500054,6.481705 12.7500054,7.89644633 11.8822067,8.77798662 L9.05372297,11.6384708 C8.80503476,11.8909694 8.46544608,12.0331465 8.11104321,12.0331465 C7.75664034,12.0331465 7.41705166,11.8909694 7.16836345,11.6384708 C6.64777977,11.1095075 6.64777977,10.260741 7.16836345,9.73177765 L9.99684717,6.87129347 L10.6253004,7.50685786 L7.79681662,10.3668976 C7.62344778,10.5432838 7.62344778,10.8260757 7.79681662,11.002462 C7.87969272,11.0866654 7.99289642,11.1340835 8.11104321,11.1340835 C8.22918999,11.1340835 8.34239369,11.0866654 8.42526979,11.002462 L11.2537535,8.14242224 C11.7743372,7.61345892 11.7743372,6.7646924 11.2537535,6.23572909 C11.0050487,5.98309264 10.6653642,5.84082775 10.3108515,5.84082775 C9.95633883,5.84082775 9.61665437,5.98309264 9.36794955,6.23572909 L6.53946582,9.09576881 C5.67166708,9.9773091 5.67166708,11.3920504 6.53946582,12.2735907 C6.95387942,12.6948835 7.52008954,12.9321503 8.11104321,12.9321503 C8.70199687,12.9321503 9.26820699,12.6948835 9.68262059,12.2735907 L12.3715468,9.55355295 L12.3715468,9.55355295 Z" id="路径" fill="#FFFFFF" fill-rule="nonzero"></path>
            </g>
        </g>
    </g>
</svg>