<?xml version="1.0" encoding="UTF-8"?>
<svg width="18px" height="18px" viewBox="0 0 18 18" version="1.1" xmlns="http://www.w3.org/2000/svg" xmlns:xlink="http://www.w3.org/1999/xlink">
    <title>attachment_audio</title>
    <g id="页面-1" stroke="none" stroke-width="1" fill="none" fill-rule="evenodd">
        <g id="邮件附件" transform="translate(-168.000000, -24.000000)">
            <g id="编组-5" transform="translate(168.000000, 24.000000)">
                <rect id="矩形" fill-opacity="0" fill="#FFFFFF" opacity="0" x="0" y="0" width="18" height="18"></rect>
                <path d="M3,0 L12.1715729,0 C12.7020059,-9.74389576e-17 13.2107137,0.210713681 13.5857864,0.585786438 L16.4142136,3.41421356 C16.7892863,3.78928632 17,4.29799415 17,4.82842712 L17,16 C17,17.1045695 16.1045695,18 15,18 L3,18 C1.8954305,18 1,17.1045695 1,16 L1,2 C1,0.8954305 1.8954305,2.02906125e-16 3,0 Z" id="矩形" fill="#FF8C8C"></path>
                <path d="M8.1,6.2 L11.4333333,8.7 C11.8751611,9.03137085 11.9647042,9.6581722 11.6333333,10.1 C11.5764791,10.1758057 11.509139,10.2431458 11.4333333,10.3 L8.1,12.8 C7.6581722,13.1313708 7.03137085,13.0418278 6.7,12.6 C6.57017787,12.4269038 6.5,12.2163702 6.5,12 L6.5,7 C6.5,6.44771525 6.94771525,6 7.5,6 C7.71637021,6 7.92690383,6.07017787 8.1,6.2 Z" id="矩形" fill="#FFFFFF"></path>
            </g>
        </g>
    </g>
</svg>