<?xml version="1.0" encoding="UTF-8"?>
<svg width="20px" height="20px" viewBox="0 0 20 20" version="1.1" xmlns="http://www.w3.org/2000/svg" xmlns:xlink="http://www.w3.org/1999/xlink">
    <title>icon_scale</title>
    <g id="弹窗" stroke="none" stroke-width="1" fill="none" fill-rule="evenodd">
        <g id="编组-33备份-4" transform="translate(-180.000000, -18.000000)">
            <g id="icon_scale" transform="translate(180.000000, 18.000000)">
                <rect id="矩形备份-27" x="0" y="0" width="20" height="20"></rect>
                <rect id="矩形" stroke="#000000" stroke-width="0.833333333" opacity="0.300000012" x="7.08333333" y="7.08333333" width="5.83333333" height="5.83333333" rx="1.66666667"></rect>
                <path d="M0,5.83333333 L0,1.66666667 C-3.3477023e-16,0.746192084 0.746192084,-5.29561672e-17 1.66666667,0 L5.83333333,0 L5.83333333,0" id="路径" stroke="#000000" stroke-width="0.833333333" transform="translate(2.916667, 2.916667) rotate(-180.000000) translate(-2.916667, -2.916667) "></path>
                <path d="M14.1666667,5.83333333 L14.1666667,1.66666667 C14.1666667,0.746192084 14.9128588,9.0966379e-13 15.8333333,9.09494702e-13 L20,9.09494702e-13 L20,9.09494702e-13" id="路径备份-2" stroke="#000000" stroke-width="0.833333333" transform="translate(17.083333, 2.916667) rotate(-90.000000) translate(-17.083333, -2.916667) "></path>
                <path d="M0,20 L0,15.8333333 C-1.12725625e-16,14.9128588 0.746192084,14.1666667 1.66666667,14.1666667 L5.83333333,14.1666667 L5.83333333,14.1666667" id="路径备份" stroke="#000000" stroke-width="0.833333333" transform="translate(2.916667, 17.083333) rotate(-270.000000) translate(-2.916667, -17.083333) "></path>
                <path d="M14.1666667,20 L14.1666667,15.8333333 C14.1666667,14.9128588 14.9128588,14.1666667 15.8333333,14.1666667 L20,14.1666667 L20,14.1666667" id="路径备份-3" stroke="#000000" stroke-width="0.833333333"></path>
            </g>
        </g>
    </g>
</svg>