<?xml version="1.0" encoding="UTF-8"?>
<svg width="348px" height="265px" viewBox="0 0 348 265" version="1.1" xmlns="http://www.w3.org/2000/svg" xmlns:xlink="http://www.w3.org/1999/xlink">
    <title>未搜索到站点</title>
    <defs>
        <polygon id="path-1" points="0 -7.49710821e-06 348 -7.49710821e-06 348 264.999993 0 264.999993"></polygon>
        <polygon id="path-3" points="0 265 347.662179 265 347.662179 0 0 0"></polygon>
    </defs>
    <g id="404" stroke="none" stroke-width="1" fill="none" fill-rule="evenodd">
        <g id="未搜索到站点" transform="translate(-595.000000, -194.000000)">
            <g id="404" transform="translate(595.000000, 194.000000)">
                <g id="编组">
                    <g transform="translate(0.000000, 0.000007)">
                        <mask id="mask-2" fill="white">
                            <use xlink:href="#path-1"></use>
                        </mask>
                        <g id="Clip-2"></g>
                        <path d="M215.084841,5.5326978 C168.870897,13.6461565 124.871727,30.8176273 79.8575155,44.2593872 C50.1104769,53.1408893 5.27394729,55.8660434 0.430474934,94.8267461 C-1.02101518,106.495906 1.41798872,118.287072 4.46311488,129.644715 C21.7773899,194.221365 62.1853731,245.911288 130.429433,258.361992 C170.391959,265.652404 212.601291,270.339669 250.983695,253.661726 C294.306671,234.836162 325.407099,195.36093 339.160719,150.805411 C351.940338,109.40357 355.424415,43.6668537 317.791781,13.3856418 C296.405826,-3.82283112 269.952669,-0.280130831 244.479017,1.74198349 C234.563838,2.52852796 224.774288,3.83160163 215.084841,5.5326978" id="Fill-1" fill="#DBECF9" mask="url(#mask-2)"></path>
                    </g>
                    <mask id="mask-4" fill="white">
                        <use xlink:href="#path-3"></use>
                    </mask>
                    <g id="Clip-4"></g>
                    <polygon id="Fill-3" fill="#3A5C9B" mask="url(#mask-4)" points="138.485339 242.601232 226.077297 242.601232 226.077297 205.649141 138.485339 205.649141"></polygon>
                    <path d="M319.035859,216.59736 L45.526877,216.59736 C44.3338095,216.59736 43.3667547,215.630806 43.3667547,214.437238 L43.3667547,44.944144 C43.3667547,43.7510765 44.3338095,42.7840217 45.526877,42.7840217 L319.035859,42.7840217 C320.227926,42.7840217 321.195981,43.7510765 321.195981,44.944144 L321.195981,214.437238 C321.195981,215.630806 320.227926,216.59736 319.035859,216.59736" id="Fill-5" fill="#AED3EF" mask="url(#mask-4)"></path>
                    <polygon id="Fill-6" fill="#AED3EF" mask="url(#mask-4)" points="116.587599 249.44512 247.974536 249.44512 247.974536 242.601232 116.587599 242.601232"></polygon>
                    <polygon id="Fill-7" fill="#608DDB" mask="url(#mask-4)" points="56.3681907 205.649141 308.192945 205.649141 308.192945 55.1006189 56.3681907 55.1006189"></polygon>
                    <polygon id="Fill-8" fill="#FFFFFF" mask="url(#mask-4)" points="56.3681907 205.649141 308.192945 205.649141 308.192945 72.1535842 56.3681907 72.1535842"></polygon>
                    <polyline id="Stroke-9" stroke="#AED3EF" stroke-width="2.16" mask="url(#mask-4)" points="293.031937 193.62881 293.031937 196.328963 290.331784 196.328963"></polyline>
                    <line x1="285.060786" y1="196.329113" x2="76.8660009" y2="196.329113" id="Stroke-10" stroke="#AED3EF" stroke-dasharray="5,5" mask="url(#mask-4)"></line>
                    <polyline id="Stroke-11" stroke="#AED3EF" stroke-width="2.16" mask="url(#mask-4)" points="74.2305017 196.329113 71.5303489 196.329113 71.5303489 193.62896"></polyline>
                    <line x1="71.5303989" y1="188.383363" x2="71.5303989" y2="86.0920731" id="Stroke-12" stroke="#AED3EF" stroke-dasharray="5,5" mask="url(#mask-4)"></line>
                    <polyline id="Stroke-13" stroke="#AED3EF" stroke-width="2.16" mask="url(#mask-4)" points="71.5303989 83.4692247 71.5303989 80.7690718 74.2305517 80.7690718"></polyline>
                    <line x1="79.5013001" y1="80.7688718" x2="287.696085" y2="80.7688718" id="Stroke-14" stroke="#AED3EF" stroke-dasharray="5,5" mask="url(#mask-4)"></line>
                    <polyline id="Stroke-15" stroke="#AED3EF" stroke-width="2.16" mask="url(#mask-4)" points="290.331584 80.7688718 293.031737 80.7688718 293.031737 83.4690247"></polyline>
                    <line x1="293.031937" y1="88.7146216" x2="293.031937" y2="191.005912" id="Stroke-16" stroke="#AED3EF" stroke-dasharray="5,5" mask="url(#mask-4)"></line>
                    <polygon id="Fill-17" fill="#608DDB" mask="url(#mask-4)" points="56.3681907 63.8486141 308.192945 63.8486141 308.192945 55.1006189 56.3681907 55.1006189"></polygon>
                    <path d="M124.623004,72.1536342 L75.8112412,72.1536342 L76.8838019,68.5784318 C77.5293385,66.42631 79.5094505,64.9542267 81.7555777,64.9542267 L118.678168,64.9542267 C120.924295,64.9542267 122.904407,66.42631 123.549943,68.5784318 L124.623004,72.1536342 Z" id="Fill-18" fill="#FFFFFF" mask="url(#mask-4)"></path>
                    <path d="M64.0226739,59.9796451 C64.0226739,60.9692011 63.2201285,61.7727466 62.2295724,61.7727466 C61.2390164,61.7727466 60.4364709,60.9692011 60.4364709,59.9796451 C60.4364709,58.988589 61.2390164,58.1865436 62.2295724,58.1865436 C63.2201285,58.1865436 64.0226739,58.988589 64.0226739,59.9796451" id="Fill-19" fill="#3A5C9B" mask="url(#mask-4)"></path>
                    <path d="M69.5737381,59.9796451 C69.5737381,60.9692011 68.7711927,61.7727466 67.7811367,61.7727466 C66.7910806,61.7727466 65.9880352,60.9692011 65.9880352,59.9796451 C65.9880352,58.988589 66.7910806,58.1865436 67.7811367,58.1865436 C68.7711927,58.1865436 69.5737381,58.988589 69.5737381,59.9796451" id="Fill-20" fill="#3A5C9B" mask="url(#mask-4)"></path>
                    <path d="M75.1255524,59.9796451 C75.1255524,60.9692011 74.323007,61.7727466 73.3329509,61.7727466 C72.3428949,61.7727466 71.5398494,60.9692011 71.5398494,59.9796451 C71.5398494,58.988589 72.3428949,58.1865436 73.3329509,58.1865436 C74.323007,58.1865436 75.1255524,58.988589 75.1255524,59.9796451" id="Fill-21" fill="#3A5C9B" mask="url(#mask-4)"></path>
                    <path d="M284.50053,247 C282.570098,247 281,248.569687 281,250.500795 C281,252.430843 282.570098,254 284.50053,254 C286.430431,254 288,252.430843 288,250.500795 C288,248.569687 286.430431,247 284.50053,247 M284.500503,256 C281.468104,256 279,253.534465 279,250.500503 C279,247.467549 281.468104,245 284.500503,245 C287.532903,245 290,247.467549 290,250.500503 C290,253.534465 287.532903,256 284.500503,256" id="Fill-22" fill="#FFFFFF" mask="url(#mask-4)"></path>
                    <path d="M77.2331217,252.501743 L74.9379918,252.501743 L74.9379918,250.206113 C74.9379918,249.312062 74.2124507,248.586021 73.3179001,248.586021 C72.4228494,248.586021 71.6978084,249.312062 71.6978084,250.206113 L71.6978084,252.501743 L69.4021784,252.501743 C68.5076278,252.501743 67.7825868,253.227284 67.7825868,254.121334 C67.7825868,255.015885 68.5076278,255.741426 69.4021784,255.741426 L71.6978084,255.741426 L71.6978084,258.036556 C71.6978084,258.931106 72.4228494,259.657148 73.3179001,259.657148 C74.2124507,259.657148 74.9379918,258.931106 74.9379918,258.036556 L74.9379918,255.741426 L77.2331217,255.741426 C78.1281723,255.741426 78.8532134,255.015885 78.8532134,254.121334 C78.8532134,253.227284 78.1281723,252.501743 77.2331217,252.501743" id="Fill-23" fill="#FFFFFF" mask="url(#mask-4)"></path>
                </g>
                <g id="缺省页_暂无搜索" transform="translate(124.000000, 87.000000)" fill-rule="nonzero">
                    <rect id="矩形" fill="#000000" opacity="0" x="0" y="0" width="101" height="101"></rect>
                    <path d="M10,88.5 C10,91.5375661 28.1324676,94 50.5,94 C72.8675324,94 91,91.5375661 91,88.5 C91,85.4624339 72.8675324,83 50.5,83 C28.1324676,83 10,85.4624339 10,88.5 Z" id="路径" fill="#4A68CC" opacity="0.1"></path>
                    <path d="M20,55.3893576 C20,56.2498378 20.658466,56.907852 21.5195369,56.907852 C22.3806078,56.907852 23.0390738,56.2498378 23.0390738,55.3893576 C23.0390738,54.5288774 22.3806078,53.8708631 21.5195369,53.8708631 C20.7091172,53.8708631 20,54.5794938 20,55.3893576 L20,55.3893576 Z M90,82.7222583 C88.4804631,83.1271901 88.1259045,83.430889 87.7206946,85 C87.3154848,83.4815055 87.0115774,83.1271901 85.4413893,82.7222583 C86.9609262,82.3173264 87.3154848,81.963011 87.7206946,80.4445165 C88.1259045,81.963011 88.4298119,82.3173264 90,82.7222583 Z M84.934877,78.0149254 C82.1997106,78.7235561 81.5918958,79.3309539 80.8827786,82.064244 C80.1736614,79.3309539 79.5658466,78.7235561 76.8306802,78.0149254 C79.5658466,77.3062946 80.1736614,76.6988968 80.8827786,73.9656067 C81.5918958,76.6988968 82.1997106,77.3062946 84.934877,78.0149254 Z M86.70767,18.5911746 C85.1881331,18.9961064 84.8842258,19.2998053 84.4790159,20.8182998 C84.0738061,19.2998053 83.7698987,18.9961064 82.2503618,18.5911746 C83.7698987,18.1862427 84.0738061,17.8825438 84.4790159,16.3640493 C84.8335745,17.8825438 85.1881331,18.1862427 86.70767,18.5911746 Z M85.4413893,12.8208955 C81.4905933,13.8332252 80.6801737,14.6937054 79.6164978,18.641791 C78.6034732,14.6937054 77.7424023,13.8838417 73.7916064,12.8208955 C77.7424023,11.8085659 78.552822,10.9480857 79.6164978,7 C80.6295224,10.8974692 81.4905933,11.7579494 85.4413893,12.8208955 Z" id="形状" fill="#4A68CC" opacity="0.5"></path>
                    <path d="M15,20.7780083 L15,21.2354772 L18.78,24.7935685 L33.2952,17.6773859 L20.1912,26.1659751 L20.1408,26.1659751 L20.1408,30.3340249 L22.2576,28.25 L22.2576,28.1991701 L22.308,28.25 L24.4248,30.3340249 L35.664,16.4574689 L35.664,16 L15,20.7780083 Z M58.844,23.8526971 C48.008,23.8526971 39.188,32.7479253 39.188,43.6763485 C39.188,54.6047718 48.008,63.5 58.844,63.5 C69.68,63.5 78.5,54.6047718 78.5,43.6763485 C78.5,32.7479253 69.68,23.8526971 58.844,23.8526971 Z M63.884,45.2012448 L53.804,45.2012448 C52.9472,45.2012448 52.292,44.5404564 52.292,43.6763485 C52.292,42.8122407 52.9472,42.1514523 53.804,42.1514523 L63.884,42.1514523 C64.7408,42.1514523 65.396,42.8122407 65.396,43.6763485 C65.396,44.5404564 64.7408,45.2012448 63.884,45.2012448 Z" id="形状" fill="#4A68CC" opacity="0.2"></path>
                    <path d="M58.7984612,17 C44.364984,17 32.6472134,28.9312363 32.6472134,43.6276518 C32.6472134,50.899049 35.5137925,57.4535479 40.1405517,62.267008 L36.0167011,66.4659839 L35.664665,66.1075347 C33.9044849,64.315289 31.0379058,64.315289 29.2777257,66.1075347 L19.3201351,76.2465252 C17.559955,78.038771 17.559955,80.9575713 19.3201351,82.7498171 L22.1867142,85.6686174 C23.0919497,86.5903438 24.2486395,87 25.4053293,87 C26.5620191,87 27.718709,86.5391368 28.6239445,85.6686174 L38.581535,75.5296269 C40.3417151,73.7373811 40.3417151,70.8185808 38.581535,69.026335 L38.229499,68.6678859 L42.4539313,64.366496 C46.929818,68.0534016 52.6629762,70.2553036 58.8487521,70.2553036 C73.2822293,70.2553036 85,58.3240673 85,43.6276518 C85,28.9312363 73.2319384,17 58.7984612,17 Z M36.419028,73.378932 L26.4614374,83.5179225 C25.8579471,84.1324067 24.9024207,84.1324067 24.3492212,83.5179225 L21.4826421,80.5991222 C20.8791518,79.9846379 20.8791518,79.0117045 21.4826421,78.4484272 L31.4402327,68.3094367 C31.7419779,68.0021946 32.1443047,67.8485735 32.4963408,67.8485735 C32.8986677,67.8485735 33.2507037,68.0021946 33.5524489,68.3094367 L36.419028,71.228237 C36.9722274,71.7915143 36.9722274,72.7644477 36.419028,73.378932 Z M58.7984612,67.1828822 C46.0245825,67.1828822 35.664665,56.6342356 35.664665,43.6276518 C35.664665,30.621068 46.0245825,20.0724214 58.7984612,20.0724214 C71.57234,20.0724214 81.9322575,30.621068 81.9322575,43.6276518 C81.9322575,56.6342356 71.57234,67.1828822 58.7984612,67.1828822 Z" id="形状" fill="#4A68CC" opacity="0.5"></path>
                </g>
            </g>
        </g>
    </g>
</svg>