<?xml version="1.0" standalone="no"?><!DOCTYPE svg PUBLIC "-//W3C//DTD SVG 1.1//EN" "http://www.w3.org/Graphics/SVG/1.1/DTD/svg11.dtd"><svg class="icon" width="200px" height="200.00px" viewBox="0 0 1024 1024" version="1.1" xmlns="http://www.w3.org/2000/svg"><path fill="#ffffff" d="M951.898869 182.279487c0 0.798179-0.195451 1.544169-0.237407 2.333138l0 304.900222c0 24.716938-19.757996 44.751227-44.131103 44.751227-24.373107 0-44.131103-20.035312-44.131103-44.74918L863.399255 288.961204 455.726346 697.129394c-17.426905 17.449417-45.681412 17.449417-63.10627 0-17.426905-17.446347-17.426905-45.736671 0-63.183018l407.109068-407.605372L600.421842 226.341005c-24.753777 0-44.819788-19.72525-44.819788-44.061518 0-24.332175 20.068058-44.058448 44.819788-44.058448l301.168224 0c10.502192-1.213641 21.299095 1.178849 30.359448 7.424086C943.971315 153.548118 951.898869 166.996408 951.898869 182.279487zM423.938362 226.385007l0 0.002047-219.898269 0c-24.290219 0-43.979654 20.37812-43.979654 44.668339l0 483.087507c0 24.290219 19.689435 43.977607 43.979654 43.977607l615.713107 0c24.290219 0 43.979654-19.687388 43.979654-43.977607l0-87.961354 0.004093 0c0-24.288173 19.687388-43.977607 43.977607-43.977607s43.9817 19.689435 43.9817 43.977607c0 0.011256-0.004093 0.021489-0.004093 0.030699l0 109.918435c0 60.727083-49.224098 109.953228-109.949134 109.953228l-659.694807 0c-60.72299 0-109.947088-49.226145-109.947088-109.953228L72.101131 248.378927c0-60.725036 49.224098-109.951181 109.947088-109.951181l241.874793 0c0.004093 0 0.011256-0.002047 0.01535-0.002047 24.290219 0 43.979654 19.689435 43.979654 43.979654S448.228581 226.385007 423.938362 226.385007z" /></svg>