<?xml version="1.0" encoding="utf-8"?>
<!-- Generator: Adobe Illustrator 27.3.1, SVG Export Plug-In . SVG Version: 6.00 Build 0)  -->
<svg version="1.1" id="Lager_1" xmlns="http://www.w3.org/2000/svg" xmlns:xlink="http://www.w3.org/1999/xlink" x="0px" y="0px"
	 viewBox="0 0 299.9992 74.5893" style="enable-background:new 0 0 299.9992 74.5893;" xml:space="preserve">
<g>
	<g>
		<path d="M89.3355,73.4024L78.8535,41.2972c-0.0659-0.2637,0.0659-0.3954,0.3296-0.3954h7.1856c0.132,0,0.2637,0,0.3299,0.1976
			l7.9109,25.2492c0.2637,0.9232,1.1866,0.9232,1.4503,0l7.7792-25.2492c0.0659-0.1976,0.1976-0.1976,0.3296-0.1976h7.1198
			c0.1979,0,0.3296,0.1317,0.2637,0.3954l-10.3502,32.1053c-0.0659,0.1979-0.1317,0.1979-0.2637,0.1979h-11.339
			C89.4672,73.6003,89.4013,73.6003,89.3355,73.4024z"/>
		<g>
			<path d="M111.4809,57.3795c0-9.618,6.1439-17.4668,16.4052-17.4668c11.548,0,16.8878,9.232,16.2123,18.7212
				c-0.0322,0.4503-0.1931,0.6112-0.5469,0.6112h-24.8009c0.6434,5.4685,4.3426,8.7495,9.2963,8.7495
				c4.2139,0,6.4978-1.8336,7.881-4.4712c0.1287-0.1931,0.2574-0.2895,0.4825-0.2895h6.7229c0.1287,0,0.2574,0.0964,0.2574,0.2895
				c0,0.8363-1.6405,5.3397-5.3398,7.9453c-2.702,2.0587-6.0795,3.1202-10.004,3.1202
				C118.2682,74.5889,111.4809,67.4799,111.4809,57.3795z M136.8607,53.3585c-1.1902-4.5999-4.4712-6.8515-9.1033-6.8515
				c-4.4069,0-7.5592,2.5733-8.7494,6.8515H136.8607z"/>
		</g>
		<path d="M165.061,47.6261h-2.7607c-4.285,0-7.5155,3.0323-7.5155,7.5152v18.1953c0,0.132-0.1317,0.2637-0.2637,0.2637h-6.6582
			c-0.132,0-0.2637-0.1317-0.2637-0.2637V41.1654c0-0.132,0.1317-0.2637,0.2637-0.2637h6.1969c0.1317,0,0.2637,0.1317,0.2637,0.2637
			v3.428c0,0.5933,0.725,0.857,1.1866,0.2637c1.9777-2.6372,4.9442-3.9555,7.5152-3.9555h2.0357
			c0.1317,0,0.2637,0.1317,0.2637,0.2637v6.1969C165.3248,47.4941,165.1927,47.6261,165.061,47.6261z"/>
		<path d="M172.056,28.4624c2.3732,0,4.4829,1.9777,4.4829,4.3509c0,2.3734-2.1097,4.3512-4.4829,4.3512
			c-2.3735,0-4.4829-1.9777-4.4829-4.3512C167.5731,30.4401,169.6825,28.4624,172.056,28.4624z M168.4301,73.3366V41.1654
			c0-0.132,0.1317-0.2637,0.2637-0.2637h6.5923c0.132,0,0.2637,0.1317,0.2637,0.2637v32.1711c0,0.132-0.1317,0.2637-0.2637,0.2637
			h-6.5923C168.5618,73.6003,168.4301,73.4686,168.4301,73.3366z"/>
		<path d="M183.3952,73.3366V47.6261h-4.4747c-0.1317,0-0.2634-0.132-0.2634-0.2637v-6.1969c0-0.132,0.1317-0.2637,0.2634-0.2637
			h4.4747V36.402c0-5.3399,3.0984-7.713,8.3066-7.713l5.925-0.0001c0.132,0,0.2637,0.132,0.2637,0.2637v6.1969
			c0,0.1317-0.1317,0.2637-0.2637,0.2637h-4.3428c-2.0439,0-2.8347,0.7911-2.8347,2.703v2.7854h6.0446
			c0.1317,0,0.2637,0.1317,0.2637,0.2637v6.1969c0,0.1317-0.132,0.2637-0.2637,0.2637h-6.0446v25.7105
			c0,0.132-0.132,0.2637-0.2637,0.2637h-6.5268C183.5272,73.6003,183.3952,73.4686,183.3952,73.3366z"/>
		<path d="M197.347,57.3169c0-10.4161,7.0539-17.4041,16.8109-17.4041c9.8887,0,16.9426,7.0539,16.9426,17.4041
			c0,10.2182-7.0539,17.2724-16.9426,17.2724C204.4009,74.5893,197.347,67.5351,197.347,57.3169z M214.1578,67.7988
			c5.7353,0,9.8228-4.0213,9.8228-10.4819c0-6.5923-4.0213-10.6139-9.8228-10.6139c-5.6695,0-9.6249,4.0875-9.6249,10.6139
			C204.5329,63.7116,208.5542,67.7988,214.1578,67.7988z"/>
		<path d="M234.5444,73.3366V41.1654c0-0.132,0.1317-0.2637,0.2637-0.2637h6.1969c0.1317,0,0.2637,0.1317,0.2637,0.2637v2.7689
			c0,0.5933,0.7909,0.857,1.2524,0.2634c1.7799-2.3732,4.4829-4.0872,8.8999-4.0872c7.4493,0,12.4597,4.9445,12.4597,12.4597
			v20.7663c0,0.132-0.132,0.2637-0.2637,0.2637h-6.6585c-0.1317,0-0.2637-0.1317-0.2637-0.2637V54.2843
			c0-4.6146-2.9664-7.3835-7.2515-7.3835c-4.4829,0-7.7133,3.0985-7.7133,7.5813v18.8544c0,0.132-0.1317,0.2637-0.2637,0.2637
			h-6.6582C234.6761,73.6003,234.5444,73.4686,234.5444,73.3366z"/>
		<g>
			<path d="M267.3249,57.3795c0-9.618,6.144-17.4668,16.4052-17.4668c11.548,0,16.8878,9.232,16.2123,18.7212
				c-0.0323,0.4503-0.1931,0.6112-0.5469,0.6112h-24.8009c0.6434,5.4685,4.3426,8.7495,9.2963,8.7495
				c4.2139,0,6.4978-1.8336,7.881-4.4712c0.1287-0.1931,0.2574-0.2895,0.4825-0.2895h6.723c0.1287,0,0.2574,0.0964,0.2574,0.2895
				c0,0.8363-1.6405,5.3397-5.3398,7.9453c-2.702,2.0587-6.0796,3.1202-10.004,3.1202
				C274.1121,74.5889,267.3249,67.4799,267.3249,57.3795z M292.7047,53.3585c-1.1902-4.5999-4.4712-6.8515-9.1033-6.8515
				c-4.4069,0-7.5592,2.5733-8.7494,6.8515H292.7047z"/>
		</g>
	</g>
	<g>
		<path d="M54.5181,49.8361c5.3819,0,9.7853-4.4034,9.7853-9.7853c0-2.9356-1.4678-5.4798-3.3759-7.4368
			c-2.006-1.9571-4.4523-3.9141-4.4523-7.2411s2.4463-5.2841,4.4523-7.2411c1.9081-1.9571,3.3759-4.5012,3.3759-7.4368
			c0-5.3819-4.4034-9.7853-9.7853-9.7853c-5.4308,0-9.7853,4.4034-9.7853,9.7853c0,2.9356,1.4189,5.4798,3.327,7.4368
			c2.006,1.9571,4.4523,3.9141,4.4523,7.2411s-2.4463,5.2841-4.4523,7.2411c-1.9081,1.9571-3.327,4.5012-3.327,7.4368
			C44.7328,45.4327,49.0873,49.8361,54.5181,49.8361z"/>
		<circle cx="32.1517" cy="63.815" r="9.7853"/>
		<circle cx="9.7853" cy="40.0507" r="9.7853"/>
		<circle cx="9.7853" cy="10.6948" r="9.7853"/>
	</g>
	<g>
		<path d="M295.054,39.439c-0.5019-0.2952-0.8993-0.6938-1.192-1.1957c-0.2928-0.5019-0.4392-1.0481-0.4392-1.6386
			c0-0.6003,0.1464-1.1525,0.4392-1.657c0.2927-0.5043,0.6901-0.9042,1.192-1.1994c0.5019-0.2952,1.0505-0.4429,1.6459-0.4429
			c0.5953,0,1.1452,0.1476,1.6496,0.4429c0.5043,0.2952,0.9053,0.6951,1.2031,1.1994c0.2977,0.5044,0.4465,1.0518,0.4465,1.6422
			s-0.1476,1.1379-0.4429,1.6422c-0.2952,0.5044-0.695,0.9054-1.1994,1.2031c-0.5044,0.2977-1.0567,0.4465-1.657,0.4465
			C296.1046,39.8818,295.5559,39.7342,295.054,39.439z M294.4008,37.9333c0.2288,0.4085,0.5449,0.732,0.9484,0.9706
			c0.4034,0.2387,0.8537,0.358,1.3507,0.358c0.492,0,0.9423-0.1205,1.3507-0.3617c0.4084-0.241,0.7294-0.5658,0.9633-0.9743
			c0.2336-0.4084,0.3506-0.8537,0.3506-1.3359c0-0.4871-0.1133-0.9348-0.3395-1.3433c-0.2264-0.4083-0.5425-0.7331-0.9484-0.9743
			c-0.4059-0.241-0.8648-0.3617-1.3766-0.3617c-0.5019,0-0.9546,0.1206-1.3581,0.3617c-0.4035,0.2411-0.7184,0.5672-0.9448,0.9779
			c-0.2263,0.4109-0.3395,0.8624-0.3395,1.3544C294.0576,37.0821,294.1721,37.5249,294.4008,37.9333z M295.3567,34.8481
			c0-0.0148,0.0061-0.0283,0.0185-0.0406c0.0122-0.0122,0.0258-0.0184,0.0406-0.0184h1.6312c0.2164,0,0.4144,0.0468,0.5941,0.1402
			c0.1796,0.0935,0.3223,0.2214,0.4281,0.3838c0.1057,0.1624,0.1587,0.3445,0.1587,0.5462c0,0.2461-0.069,0.4478-0.2067,0.6052
			c-0.1378,0.1575-0.31,0.2485-0.5166,0.2731c-0.0443,0.0049-0.0664,0.0247-0.0664,0.059c0,0.0148,0.0074,0.0308,0.0221,0.048
			c0.0148,0.0173,0.0344,0.0284,0.0591,0.0332c0.1131,0.0197,0.2041,0.0837,0.273,0.1919c0.0689,0.1083,0.1476,0.2952,0.2362,0.5609
			l0.1993,0.6052c0.0048,0.005,0.0074,0.0148,0.0074,0.0295c0,0.0295-0.0173,0.0443-0.0517,0.0443h-0.6938
			c-0.0147,0-0.0271-0.0024-0.0369-0.0074c-0.0099-0.0048-0.0173-0.0172-0.0221-0.0369l-0.1698-0.5019
			c-0.0738-0.2705-0.1489-0.4613-0.2251-0.572c-0.0764-0.1107-0.1932-0.1661-0.3506-0.1661h-0.62v1.2252
			c0,0.0147-0.0062,0.0284-0.0184,0.0406c-0.0123,0.0123-0.0258,0.0184-0.0406,0.0184h-0.5905
			c-0.0148,0-0.0284-0.0061-0.0406-0.0184c-0.0124-0.0122-0.0185-0.0258-0.0185-0.0406V34.8481z M296.8845,36.4054
			c0.1624,0,0.3037-0.0406,0.4244-0.1218c0.1205-0.0812,0.1808-0.2078,0.1808-0.3801c0-0.1772-0.059-0.3087-0.1771-0.3949
			c-0.1181-0.086-0.2609-0.1292-0.4281-0.1292h-0.8193v1.0259H296.8845z"/>
	</g>
</g>
<g>
	<path d="M128.7041,15.418c-0.0254-0.0215-0.0376-0.0537-0.0376-0.0967c0-1.3643,0.2944-2.5566,0.8838-3.5781
		s1.5591-1.8926,2.9092-2.6143l1.8857-1.0078c0.75-0.3994,1.334-0.7656,1.7515-1.0977c0.418-0.332,0.7285-0.6963,0.9321-1.0928
		s0.3057-0.873,0.3057-1.4307c0-0.4854-0.1357-0.9482-0.4072-1.3877s-0.668-0.793-1.1895-1.0605s-1.1392-0.4014-1.8535-0.4014
		c-0.6641,0-1.2339,0.1104-1.709,0.332s-0.8555,0.5283-1.1411,0.9209c-0.1997,0.2715-0.3569,0.6113-0.4712,1.0186
		s-0.1714,0.7529-0.1714,1.0391c0,0.0361-0.0073,0.0586-0.0215,0.0693c-0.0146,0.0107-0.0361,0.0166-0.0645,0.0166h-1.6392
		c-0.0786,0-0.1177-0.0283-0.1177-0.0859c0.0283-0.5361,0.123-1.0645,0.2837-1.5859s0.3979-0.9854,0.7124-1.3926
		c0.4429-0.6143,1.0288-1.0947,1.7573-1.4414s1.5894-0.5195,2.582-0.5195c1.0786,0,2.0142,0.2109,2.8071,0.6318
		c0.793,0.4219,1.3945,0.9775,1.8057,1.666c0.4106,0.6895,0.6157,1.4238,0.6157,2.2021s-0.1445,1.459-0.4336,2.041
		c-0.2896,0.582-0.7036,1.0986-1.2432,1.5488c-0.5391,0.4492-1.2412,0.9062-2.1055,1.3711l-1.8428,0.9854
		c-0.8999,0.4785-1.5786,1-2.0356,1.5645s-0.6929,1.1533-0.707,1.7676h8.5181c0.021,0,0.041,0.0098,0.0586,0.0273
		c0.0181,0.0176,0.0269,0.041,0.0269,0.0693v1.4678c0,0.0215-0.0088,0.041-0.0269,0.0596
		c-0.0176,0.0176-0.0376,0.0264-0.0586,0.0264H128.795C128.7593,15.4502,128.729,15.4395,128.7041,15.418z"/>
	<path d="M144.3423,14.7646c-1.0854-0.6641-1.9229-1.5928-2.5122-2.7861c-0.5894-1.1924-0.8838-2.5605-0.8838-4.1035
		c0-1.5352,0.2944-2.8994,0.8838-4.0928c0.5894-1.1924,1.4268-2.1211,2.5122-2.7861C145.4283,0.332,146.6963,0,148.1465,0
		c1.3784,0,2.5947,0.3018,3.6484,0.9053c1.0532,0.6035,1.8696,1.4521,2.4482,2.5449c0.1782,0.3428,0.3389,0.7393,0.4819,1.1895
		s0.2144,0.7607,0.2144,0.9316c0,0.0508-0.0215,0.0752-0.0645,0.0752h-1.7461c-0.0645,0-0.1035-0.0322-0.1182-0.0967
		c-0.1641-0.7568-0.4644-1.4209-0.8999-1.9922s-0.9912-1.0186-1.666-1.3398s-1.4409-0.4824-2.2983-0.4824
		c-1.1284,0-2.0967,0.2705-2.9038,0.8096c-0.8076,0.5391-1.418,1.2744-1.8325,2.207c-0.4141,0.9316-0.6211,1.9736-0.6211,3.123
		c0,1.1572,0.207,2.2002,0.6211,3.1289c0.4146,0.9287,1.0249,1.6641,1.8325,2.207c0.8071,0.543,1.7754,0.8145,2.9038,0.8145
		c1.3213,0,2.395-0.3535,3.2197-1.0605c0.8252-0.708,1.3877-1.665,1.6875-2.8721c0.0073-0.043,0.0176-0.0674,0.0322-0.0752
		c0.0142-0.0068,0.043-0.0107,0.0859-0.0107h1.7031c0.0571,0,0.0859,0.0215,0.0859,0.0645c0,0.3145-0.1162,0.7705-0.3481,1.3662
		c-0.2324,0.5967-0.498,1.1162-0.7983,1.5596c-0.6001,0.8926-1.3804,1.5762-2.3408,2.0518
		c-0.9609,0.4746-2.0698,0.7119-3.3271,0.7119C146.6963,15.7607,145.4283,15.4287,144.3423,14.7646z"/>
	<path d="M157.3833,15.4238c-0.0181-0.0186-0.0269-0.0381-0.0269-0.0596V0.3965c0-0.0215,0.0088-0.041,0.0269-0.0586
		s0.0376-0.0273,0.0591-0.0273h1.5645c0.021,0,0.041,0.0098,0.0586,0.0273c0.0181,0.0176,0.0269,0.0371,0.0269,0.0586v5.3574
		c0,0.0498,0.0176,0.0889,0.0537,0.1172c0.0356,0.0293,0.0786,0.043,0.1284,0.043c0.0859,0,0.1499-0.0322,0.1929-0.0957
		c0.2856-0.4072,0.666-0.7256,1.1411-0.9541s1.0444-0.3428,1.709-0.3428c0.8145,0,1.5283,0.1641,2.1431,0.4932
		c0.6138,0.3281,1.0908,0.7979,1.4302,1.4092c0.3394,0.6104,0.5088,1.3223,0.5088,2.1367v6.8037
		c0,0.0215-0.0088,0.041-0.0269,0.0596c-0.0176,0.0176-0.0371,0.0264-0.0586,0.0264h-1.5859c-0.0215,0-0.041-0.0088-0.0591-0.0264
		c-0.0176-0.0186-0.0264-0.0381-0.0264-0.0596V8.8926c0-0.5713-0.1128-1.0635-0.3379-1.4785
		c-0.2246-0.4141-0.5391-0.7285-0.9429-0.9424c-0.4033-0.2148-0.8623-0.3213-1.3765-0.3213c-0.5571,0-1.0557,0.1172-1.4946,0.3535
		c-0.4395,0.2354-0.7822,0.5645-1.0288,0.9854c-0.2466,0.4219-0.3696,0.8965-0.3696,1.4248v6.4502
		c0,0.0215-0.0088,0.041-0.0269,0.0596c-0.0176,0.0176-0.0376,0.0264-0.0586,0.0264h-1.5645
		C157.4209,15.4502,157.4014,15.4414,157.3833,15.4238z"/>
	<path d="M170.9659,15.0488c-0.8105-0.4756-1.4409-1.1465-1.8911-2.0146c-0.4497-0.8682-0.6748-1.8701-0.6748-3.0059
		c0-1.0713,0.2124-2.0459,0.6377-2.9248c0.4248-0.8779,1.0352-1.5713,1.832-2.0781c0.7964-0.5078,1.7266-0.7607,2.791-0.7607
		c1.1357,0,2.0962,0.2529,2.8823,0.7607c0.7861,0.5068,1.3711,1.1729,1.7568,1.998s0.5791,1.7129,0.5791,2.6621
		c0,0.2002-0.0039,0.3506-0.0107,0.4502c-0.0078,0.1357-0.0645,0.2041-0.1719,0.2041h-8.5713
		c0.0425,0.7637,0.2178,1.4316,0.5249,2.0029c0.3071,0.5723,0.7251,1.0127,1.2534,1.3232c0.5288,0.3105,1.1431,0.4668,1.8428,0.4668
		c0.8071,0,1.4683-0.1826,1.9824-0.5469s0.8926-0.8682,1.1357-1.5107c0.0146-0.043,0.0322-0.0693,0.0537-0.0801
		s0.0498-0.0166,0.0859-0.0166h1.5967c0.0566,0,0.085,0.0322,0.085,0.0967c0,0.0928-0.0547,0.2842-0.166,0.5732
		c-0.1104,0.2891-0.2764,0.6094-0.498,0.959s-0.4893,0.6641-0.8037,0.9424c-0.9214,0.8076-2.0786,1.2109-3.4717,1.2109
		C172.7032,15.7607,171.7764,15.5234,170.9659,15.0488z M177.0684,8.7754c-0.1787-0.9434-0.5625-1.6611-1.1523-2.1543
		c-0.5894-0.4922-1.3555-0.7393-2.2983-0.7393c-0.8716,0-1.6035,0.2627-2.1963,0.7881c-0.5933,0.5244-0.9858,1.2266-1.1787,2.1055
		H177.0684z"/>
	<path d="M183.2461,15.0488c-0.8076-0.4756-1.4395-1.1484-1.8965-2.0205c-0.457-0.8711-0.6855-1.8779-0.6855-3.0215
		c0-1.1426,0.2285-2.1475,0.6855-3.0156s1.0889-1.5391,1.8965-2.0146c0.8066-0.4746,1.7207-0.7119,2.7432-0.7119
		c0.8135,0,1.5605,0.1465,2.2393,0.4395c0.6777,0.293,1.2422,0.7139,1.6924,1.2637c0.2285,0.2783,0.4219,0.5811,0.5791,0.9053
		c0.1562,0.3252,0.2744,0.6182,0.3535,0.8789c0.0781,0.2607,0.1172,0.4336,0.1172,0.5195c0,0.0576-0.0352,0.0859-0.1064,0.0859
		h-1.5752c-0.043,0-0.0732-0.0068-0.0918-0.0215c-0.0176-0.0146-0.0332-0.043-0.0479-0.0859
		c-0.5146-1.5645-1.5674-2.3467-3.1602-2.3467c-0.7002,0-1.3223,0.168-1.8652,0.5039c-0.542,0.3359-0.9678,0.8145-1.2744,1.4355
		c-0.3076,0.6221-0.4609,1.3428-0.4609,2.1641c0,0.8291,0.1533,1.5527,0.4609,2.1699c0.3066,0.6182,0.7334,1.0947,1.2803,1.4307
		s1.166,0.5039,1.8594,0.5039c0.8066,0,1.4922-0.2168,2.0566-0.6484c0.5645-0.4326,0.9463-1.041,1.1465-1.8271
		c0.0146-0.0645,0.0537-0.0967,0.1182-0.0967h1.5957c0.0576,0,0.0859,0.0322,0.0859,0.0967c0,0.1006-0.0371,0.291-0.1123,0.5732
		s-0.2021,0.6035-0.3799,0.9648c-0.1787,0.3604-0.415,0.7012-0.708,1.0225c-0.457,0.5-1.0117,0.8857-1.666,1.1572
		c-0.6533,0.2715-1.3662,0.4072-2.1367,0.4072C184.9668,15.7607,184.0528,15.5234,183.2461,15.0488z"/>
	<path d="M195.001,15.4238c-0.0176,0.0176-0.0371,0.0264-0.0586,0.0264h-1.5645c-0.0215,0-0.041-0.0088-0.0586-0.0264
		c-0.0186-0.0186-0.0273-0.0381-0.0273-0.0596V0.3965c0-0.0215,0.0088-0.041,0.0273-0.0586
		c0.0176-0.0176,0.0371-0.0273,0.0586-0.0273h1.5645c0.0215,0,0.041,0.0098,0.0586,0.0273
		c0.0186,0.0176,0.0273,0.0371,0.0273,0.0586v8.3789c0,0.0645,0.0215,0.1172,0.0645,0.1602S195.1885,9,195.253,9
		c0.0713,0,0.1367-0.0283,0.1934-0.0859l4.0176-4.2852c0.043-0.043,0.0928-0.0645,0.1504-0.0645h2.0146
		c0.043,0,0.0645,0.0176,0.0645,0.0537c0,0.0215-0.0146,0.0459-0.043,0.0752l-4.6719,4.8965l5.1855,5.7529
		c0.0283,0.0293,0.0391,0.0537,0.0322,0.0752s-0.0244,0.0322-0.0537,0.0322h-2.1104c-0.0576,0-0.1074-0.0215-0.1504-0.0645
		l-4.4355-4.9609c-0.0498-0.0635-0.1182-0.0957-0.2041-0.0957c-0.0645,0-0.1162,0.0176-0.1553,0.0527
		c-0.0391,0.0361-0.0586,0.0859-0.0586,0.1504v4.832C195.0284,15.3857,195.0196,15.4053,195.001,15.4238z"/>
	<path d="M205.004,15.0488c-0.8252-0.4756-1.4717-1.1484-1.9395-2.0205c-0.4678-0.8711-0.7012-1.8779-0.7012-3.0215
		c0-1.1426,0.2354-2.1475,0.707-3.0156s1.1191-1.5391,1.9443-2.0146c0.8252-0.4746,1.7559-0.7119,2.791-0.7119
		c1.0361,0,1.9658,0.2373,2.791,0.7119c0.8252,0.4756,1.4717,1.1465,1.9395,2.0146s0.7021,1.873,0.7021,3.0156
		c0,1.1436-0.2344,2.1504-0.7021,3.0215c-0.4678,0.8721-1.1143,1.5449-1.9395,2.0205c-0.8252,0.4746-1.7549,0.7119-2.791,0.7119
		C206.7627,15.7607,205.8291,15.5234,205.004,15.0488z M204.5704,12.1768c0.3213,0.6182,0.7637,1.0947,1.3281,1.4307
		s1.2002,0.5039,1.9072,0.5039s1.3428-0.165,1.9072-0.4932s1.0059-0.8037,1.3232-1.4248c0.3184-0.6221,0.4766-1.3506,0.4766-2.1865
		c0-0.8418-0.1582-1.5723-0.4766-2.1904c-0.3174-0.6182-0.7568-1.0908-1.3174-1.4199c-0.5615-0.3281-1.1982-0.4932-1.9131-0.4932
		c-0.7139,0-1.3535,0.168-1.918,0.5039s-1.0049,0.8145-1.3232,1.4355c-0.3174,0.6221-0.4766,1.3428-0.4766,2.1641
		C204.0879,10.8359,204.2491,11.5596,204.5704,12.1768z"/>
	<path d="M217.3086,15.2148c-0.6211-0.3359-1.1035-0.8145-1.4463-1.4365c-0.3428-0.6211-0.5146-1.3496-0.5146-2.1855V4.6504
		c0-0.0215,0.0088-0.041,0.0273-0.0596c0.0176-0.0176,0.0371-0.0264,0.0586-0.0264h1.5645c0.0215,0,0.041,0.0088,0.0586,0.0264
		c0.0176,0.0186,0.0264,0.0381,0.0264,0.0596v6.6104c0,0.5859,0.1143,1.0898,0.3438,1.5107
		c0.2285,0.4219,0.5439,0.7432,0.9482,0.9648c0.4033,0.2207,0.8652,0.332,1.3867,0.332c0.5576,0,1.0596-0.1221,1.5059-0.3643
		c0.4463-0.2432,0.7959-0.582,1.0498-1.0186c0.2539-0.4355,0.3809-0.9248,0.3809-1.4678V4.6504c0-0.0215,0.0088-0.041,0.0264-0.0596
		c0.0176-0.0176,0.0371-0.0264,0.0586-0.0264h1.5645c0.0215,0,0.041,0.0088,0.0586,0.0264
		c0.0186,0.0186,0.0273,0.0381,0.0273,0.0596v10.7139c0,0.0215-0.0088,0.041-0.0273,0.0596
		c-0.0176,0.0176-0.0371,0.0264-0.0586,0.0264h-1.4785c-0.0215,0-0.041-0.0088-0.0586-0.0264
		c-0.0186-0.0186-0.0273-0.0381-0.0273-0.0596v-0.8994c0-0.0498-0.0137-0.0928-0.043-0.1289
		c-0.0283-0.0361-0.0635-0.0537-0.1064-0.0537c-0.0791,0-0.1543,0.0469-0.2256,0.1396c-0.2783,0.3789-0.666,0.6895-1.1621,0.9316
		c-0.4971,0.2432-1.0879,0.3643-1.7734,0.3643C218.6514,15.7178,217.9297,15.5498,217.3086,15.2148z"/>
	<path d="M229.1993,15.2363c-0.3857-0.1436-0.6768-0.3936-0.873-0.75c-0.1963-0.3574-0.2949-0.8535-0.2949-1.4893V6.2148H226.21
		c-0.0215,0-0.041-0.0098-0.0586-0.0273c-0.0186-0.0176-0.0273-0.0371-0.0273-0.0586V4.6504c0-0.0215,0.0088-0.041,0.0273-0.0596
		c0.0176-0.0176,0.0371-0.0264,0.0586-0.0264h1.8213V1.4248c0-0.0215,0.0088-0.041,0.0273-0.0586
		c0.0176-0.0176,0.0371-0.0264,0.0586-0.0264h1.5322c0.0283,0,0.0518,0.0088,0.0693,0.0264s0.0273,0.0371,0.0273,0.0586v3.1396
		h2.4531c0.0215,0,0.041,0.0088,0.0596,0.0264c0.0176,0.0186,0.0264,0.0381,0.0264,0.0596v1.4785
		c0,0.0215-0.0088,0.041-0.0264,0.0586c-0.0186,0.0176-0.0381,0.0273-0.0596,0.0273h-2.4531v6.6211
		c0,0.3574,0.0801,0.6074,0.2412,0.75c0.1602,0.1426,0.4297,0.2139,0.8086,0.2139h1.7783c0.0215,0,0.041,0.0098,0.0596,0.0273
		c0.0176,0.0176,0.0264,0.041,0.0264,0.0693v1.4678c0,0.0215-0.0088,0.041-0.0264,0.0596
		c-0.0186,0.0176-0.0381,0.0264-0.0596,0.0264H230.71C230.0889,15.4502,229.585,15.3789,229.1993,15.2363z"/>
	<path d="M240.8272,2.4004c-0.1934-0.1143-0.3467-0.2666-0.4609-0.4561c-0.1143-0.1885-0.1719-0.3906-0.1719-0.6045
		c0-0.2148,0.0576-0.416,0.1719-0.6055s0.2676-0.3418,0.4609-0.4561c0.1924-0.1143,0.3994-0.1709,0.6211-0.1709
		s0.4307,0.0566,0.627,0.1709s0.3535,0.2666,0.4717,0.4561c0.1172,0.1895,0.1768,0.3906,0.1768,0.6055
		c0,0.2139-0.0596,0.416-0.1768,0.6045c-0.1182,0.1895-0.2754,0.3418-0.4717,0.4561s-0.4053,0.1709-0.627,0.1709
		S241.0196,2.5146,240.8272,2.4004z M240.6075,15.4238c-0.0186-0.0186-0.0273-0.0381-0.0273-0.0596V4.6504
		c0-0.0215,0.0088-0.041,0.0273-0.0596c0.0176-0.0176,0.0371-0.0264,0.0586-0.0264h1.5645c0.0215,0,0.041,0.0088,0.0586,0.0264
		c0.0176,0.0186,0.0273,0.0381,0.0273,0.0596v10.7139c0,0.0215-0.0098,0.041-0.0273,0.0596
		c-0.0176,0.0176-0.0371,0.0264-0.0586,0.0264h-1.5645C240.6446,15.4502,240.625,15.4414,240.6075,15.4238z"/>
	<path d="M245.754,14.7217c-0.3359-0.2783-0.6035-0.5928-0.8037-0.9434c-0.2002-0.3496-0.3398-0.6709-0.418-0.9639
		c-0.0791-0.293-0.1182-0.5039-0.1182-0.6318c0-0.0576,0.0283-0.0859,0.0859-0.0859h1.5537c0.0352,0,0.0645,0.0068,0.0859,0.0215
		s0.0352,0.043,0.043,0.0859c0.1348,0.6064,0.3926,1.0605,0.7715,1.3604c0.5137,0.4072,1.2812,0.6104,2.3027,0.6104
		c0.5859,0,1.0879-0.0762,1.5059-0.2295c0.418-0.1543,0.7354-0.3682,0.9531-0.6436c0.2178-0.2744,0.3271-0.5908,0.3271-0.9482
		c0-0.5352-0.1943-0.9248-0.584-1.168c-0.3896-0.2422-0.9912-0.3994-1.8057-0.4707l-1.2959-0.1182
		c-1.1357-0.0996-2.0273-0.3984-2.6738-0.8945s-0.9688-1.1982-0.9688-2.1055c0-0.6143,0.1768-1.1748,0.5303-1.6826
		c0.3535-0.5068,0.8545-0.9082,1.5049-1.2051c0.6504-0.2959,1.4072-0.4443,2.2715-0.4443c1.4717,0,2.625,0.3857,3.4609,1.1572
		c0.2783,0.25,0.5039,0.5283,0.6748,0.835c0.1719,0.3076,0.293,0.5918,0.3643,0.8525s0.1074,0.459,0.1074,0.5947
		c0,0.0566-0.0293,0.085-0.0859,0.085h-1.5215c-0.0361,0-0.0645-0.0049-0.0859-0.0156s-0.0352-0.0371-0.043-0.0801
		c-0.0635-0.25-0.1475-0.4736-0.251-0.6699c-0.1045-0.1963-0.2773-0.4023-0.5205-0.6162c-0.4707-0.3926-1.1709-0.5889-2.0996-0.5889
		c-0.5215,0-0.9766,0.0732-1.3662,0.2197s-0.6875,0.3496-0.8945,0.6104s-0.3105,0.5557-0.3105,0.8838
		c0,0.457,0.1963,0.7969,0.5889,1.0176c0.3936,0.2217,0.9932,0.3721,1.8008,0.4502l1.2529,0.1289
		c1.1572,0.1211,2.0605,0.4307,2.7109,0.9268c0.6494,0.4961,0.9746,1.2197,0.9746,2.1699c0,0.6709-0.1836,1.2744-0.5518,1.8105
		c-0.3672,0.5352-0.8945,0.957-1.5801,1.2637c-0.6855,0.3076-1.4824,0.4609-2.3896,0.4609
		C247.75,15.7607,246.5821,15.4141,245.754,14.7217z"/>
	<path d="M260.9737,15.4238c-0.0186-0.0186-0.0273-0.0381-0.0273-0.0596V4.6504c0-0.0215,0.0088-0.041,0.0273-0.0596
		c0.0176-0.0176,0.0371-0.0264,0.0586-0.0264h1.4785c0.0215,0,0.041,0.0088,0.0596,0.0264
		c0.0176,0.0186,0.0264,0.0381,0.0264,0.0596v0.8994c0,0.0508,0.0156,0.0928,0.0479,0.1289s0.0703,0.0537,0.1133,0.0537
		c0.0781,0,0.1494-0.0469,0.2139-0.1396c0.2783-0.3711,0.6709-0.6787,1.1787-0.9209c0.5068-0.2432,1.1143-0.3643,1.8213-0.3643
		c0.8281,0,1.5557,0.166,2.1807,0.498s1.1084,0.8105,1.4512,1.4355s0.5146,1.3555,0.5146,2.1914v6.9316
		c0,0.0215-0.0088,0.041-0.0264,0.0596c-0.0186,0.0176-0.0381,0.0264-0.0596,0.0264h-1.5537c-0.0215,0-0.043-0.0088-0.0635-0.0264
		c-0.0215-0.0186-0.0322-0.0381-0.0322-0.0596V8.7539c0-0.5859-0.1162-1.0898-0.3486-1.5107
		c-0.2324-0.4219-0.5537-0.7432-0.9639-0.9648c-0.4111-0.2207-0.8809-0.332-1.4092-0.332c-0.5713,0-1.082,0.1221-1.5322,0.3643
		c-0.4502,0.2432-0.8037,0.583-1.0605,1.0186c-0.2578,0.4355-0.3857,0.9248-0.3857,1.4678v6.5674
		c0,0.0215-0.0088,0.041-0.0273,0.0596c-0.0176,0.0176-0.0371,0.0264-0.0586,0.0264h-1.5645
		C261.0108,15.4502,260.9912,15.4414,260.9737,15.4238z"/>
	<path d="M274.628,15.0488c-0.8252-0.4756-1.4717-1.1484-1.9395-2.0205c-0.4678-0.8711-0.7021-1.8779-0.7021-3.0215
		c0-1.1426,0.2363-2.1475,0.707-3.0156c0.4717-0.8682,1.1201-1.5391,1.9453-2.0146c0.8242-0.4746,1.7549-0.7119,2.791-0.7119
		c1.0352,0,1.9658,0.2373,2.791,0.7119c0.8252,0.4756,1.4707,1.1465,1.9395,2.0146c0.4678,0.8682,0.7012,1.873,0.7012,3.0156
		c0,1.1436-0.2334,2.1504-0.7012,3.0215c-0.4688,0.8721-1.1143,1.5449-1.9395,2.0205c-0.8252,0.4746-1.7559,0.7119-2.791,0.7119
		C276.3867,15.7607,275.4522,15.5234,274.628,15.0488z M274.1934,12.1768c0.3213,0.6182,0.7646,1.0947,1.3291,1.4307
		s1.2002,0.5039,1.9072,0.5039s1.3428-0.165,1.9072-0.4932c0.5635-0.3281,1.0049-0.8037,1.3232-1.4248
		c0.3174-0.6221,0.4766-1.3506,0.4766-2.1865c0-0.8418-0.1592-1.5723-0.4766-2.1904c-0.3184-0.6182-0.7578-1.0908-1.3184-1.4199
		c-0.5605-0.3281-1.1982-0.4932-1.9121-0.4932c-0.7148,0-1.3535,0.168-1.918,0.5039s-1.0059,0.8145-1.3232,1.4355
		c-0.3184,0.6221-0.4766,1.3428-0.4766,2.1641C273.7119,10.8359,273.8721,11.5596,274.1934,12.1768z"/>
	<path d="M289.2784,15.4346c-0.0176,0.0107-0.041,0.0156-0.0693,0.0156h-2.6572c-0.0283,0-0.0518-0.0049-0.0693-0.0156
		c-0.0186-0.0107-0.0303-0.0342-0.0381-0.0703l-2.8281-10.7139c-0.0078-0.0068-0.0107-0.0176-0.0107-0.0322
		c0-0.0361,0.0244-0.0537,0.0752-0.0537h1.7031c0.0576,0,0.0967,0.0283,0.1182,0.0859l2.1855,8.957
		c0.0215,0.0645,0.0537,0.1162,0.0967,0.1553s0.0889,0.0586,0.1387,0.0586s0.0967-0.0195,0.1396-0.0586s0.0713-0.0908,0.0859-0.1553
		l2.1104-8.9785c0.0146-0.043,0.0498-0.0645,0.1074-0.0645h2.5068c0.0576,0,0.0938,0.0215,0.1074,0.0645l2.1543,8.9785
		c0.0137,0.0645,0.043,0.1162,0.0859,0.1553c0.042,0.0391,0.0918,0.0586,0.1494,0.0586c0.0498,0,0.0967-0.0195,0.1396-0.0586
		s0.0713-0.0908,0.0859-0.1553l2.1211-8.9785c0.0137-0.043,0.0605-0.0645,0.1387-0.0645h1.6611
		c0.0781,0,0.1104,0.0283,0.0967,0.0859l-2.8184,10.7139c-0.0068,0.0361-0.0195,0.0596-0.0371,0.0703s-0.041,0.0156-0.0693,0.0156
		h-2.6357c-0.0361,0-0.0645-0.0049-0.0859-0.0156s-0.0361-0.0342-0.043-0.0703l-2.1113-8.668
		c-0.0283-0.1426-0.0996-0.2139-0.2139-0.2139c-0.0508,0-0.0947,0.0176-0.1348,0.0537c-0.0391,0.0352-0.0654,0.0889-0.0801,0.1602
		l-2.0674,8.668C289.3086,15.4004,289.2959,15.4238,289.2784,15.4346z"/>
</g>
</svg>
