<?xml version="1.0" encoding="UTF-8"?>
<svg t="1698741606242" class="icon" viewBox="0 0 1076 1024" version="1.1"
    xmlns="http://www.w3.org/2000/svg" p-id="4001" width="44" height="44">
    <path
        d="M410.493712 644.226288c-64.448471 36.97706-74.006881-20.759958-74.006881-20.759958l-80.772173-193.983933c-31.078562-92.178305 26.897497-41.56191 26.897498-41.561909s49.746372 38.732181 87.50193 62.333712c37.732946 23.602608 80.745253 6.927882 80.745254 6.927882l528.043743-250.842313C881.479874 81.578667 720.547129 0 538.352656 0 241.013636 0 0 217.098768 0 484.919453c0 154.046856 79.806318 291.154103 204.11518 380.019214L181.698086 997.56551s-10.92805 38.720336 26.945952 20.759958c25.808892-12.243853 91.603314-56.122953 130.768353-82.82771 61.570288 22.083298 128.651441 34.345455 198.970414 34.345455 297.315331 0 538.378498-217.098768 538.378499-484.924837 0-77.573115-20.313102-150.8338-56.295235-215.861568-168.236416 104.176656-559.545472 346.282128-609.973434 375.167327z"
        fill="#1EBE1F" p-id="4002"></path>
</svg>