<svg version="1.1" id="Layer_1" xmlns="http://www.w3.org/2000/svg" x="0" y="0" viewBox="0 0 1142.23 722.56" xml:space="preserve"><style>.st1{fill:#fff}</style><path d="M974.67 722.56H0V167.55C0 75.16 75.16 0 167.55 0h807.13c92.39 0 167.55 75.16 167.55 167.55v387.47c-.01 92.38-75.17 167.54-167.56 167.54z" fill="#585fff"/><path class="st1" d="M600.62 262.4c-18.43-10.99-39.95-17.31-62.92-17.31-67.97 0-123.26 55.29-123.26 123.26s55.3 123.26 123.26 123.26c22.97 0 44.49-6.32 62.92-17.31v15.82h60.34V246.3h-60.34v16.1zm-62.93 168.88c-34.7 0-62.92-28.23-62.92-62.93s28.23-62.93 62.92-62.93c34.7 0 62.92 28.23 62.92 62.93s-28.22 62.93-62.92 62.93zM285.38 166.51h-119.2v323.61h60.34v-98.03h60.09c62.42 0 113.15-50.96 112.79-113.45-.35-62.24-51.78-112.13-114.02-112.13zm.35 165.25h-59.21V226.84h60.09c29.26 0 53 24.09 52.45 53.47-.55 28.73-24.6 51.45-53.33 51.45z"/><circle transform="rotate(-3.17 982.702 455.378)" class="st1" cx="982.73" cy="455.39" r="36.82"/><path class="st1" d="M896.7 245.44l-70.82 183.19-72.94-182.32h-65.99l97.55 243.82h17.61l-.32.84c-9.23 23.88-32.63 39.92-58.24 39.92h-7.12v60.34h8.12c50.34 0 96.36-31.54 114.51-78.5l103.33-267.28-65.69-.01z"/></svg>