<svg xmlns="http://www.w3.org/2000/svg" width="143.04" height="45.12"><g fill-rule="evenodd"><path fill="#650093" d="M0 0v33.606l133.68-.006V0z"/><path fill="#dedbdd" d="M86.16.96h46.56v31.68H86.16z"/></g><path d="M16.543 19.616c0 1.375-.583 2.493-1.747 3.352s-2.746 1.3-4.745 1.3c-1.155 0-2.162-.102-3.02-.305s-1.663-.46-2.412-.773v-3.35h.394a8.33 8.33 0 0 0 2.495 1.37c.92.32 1.806.48 2.656.48.218 0 .506-.02.862-.057a3.45 3.45 0 0 0 .871-.188c.274-.112.5-.253.68-.422s.267-.418.267-.75c0-.306-.13-.57-.4-.792s-.64-.392-1.138-.5l-1.663-.352a12.81 12.81 0 0 1-1.644-.417c-1.174-.38-2.02-.898-2.534-1.552s-.772-1.464-.772-2.434c0-1.3.582-2.36 1.747-3.183S9.112 9.8 10.942 9.8c.918 0 1.825.1 2.72.268s1.672.402 2.328.67v3.216h-.384c-.562-.45-1.25-.827-2.065-1.13a7.11 7.11 0 0 0-2.496-.455c-.3 0-.598.02-.895.06a3.49 3.49 0 0 0-.857.23c-.244.094-.453.236-.628.426s-.262.408-.262.652c0 .37.14.652.42.85s.812.376 1.593.54l1.475.3c.47.1.98.237 1.522.413 1.068.35 1.856.827 2.365 1.43s.763 1.386.763 2.35zm12.552-3.076v7.464h-3.382v-5.26l-.037-1.308c-.025-.36-.094-.652-.207-.877s-.282-.4-.5-.492-.548-.155-.96-.155a2.41 2.41 0 0 0-.965.202 7.11 7.11 0 0 0-.843.427v7.464h-3.4v-10.53h3.38v1.163c.58-.457 1.135-.813 1.666-1.07a3.99 3.99 0 0 1 1.759-.384c.692 0 1.303.155 1.833.464s.945.764 1.244 1.364c.673-.57 1.328-1.016 1.964-1.34s1.26-.488 1.87-.488c1.135 0 1.997.34 2.586 1.022s.884 1.663.884 2.944v6.854h-3.38v-5.26l-.033-1.313c-.022-.356-.1-.647-.2-.872a.98.98 0 0 0-.506-.492c-.23-.102-.556-.155-.974-.155-.28 0-.556.05-.824.146s-.598.256-.984.482zm16.392 6.348l-.674.497a4.85 4.85 0 0 1-.759.46 4.84 4.84 0 0 1-1.03.333 6 6 0 0 1-1.171.107c-1 0-1.836-.3-2.5-.93s-1.012-1.4-1.012-2.372c0-.77.17-1.397.515-1.884s.83-.872 1.46-1.153c.624-.282 1.398-.48 2.323-.6l2.875-.263v-.056c0-.582-.237-.983-.712-1.205s-1.174-.333-2.098-.333c-.556 0-1.15.1-1.78.295l-1.358.455h-.3V13.7c.356-.094.935-.205 1.737-.333a15.28 15.28 0 0 1 2.412-.192c1.917 0 3.302.295 4.154.886s1.278 1.518 1.278 2.78v7.164h-3.344V22.89zm0-1.638v-2.187l-1.48.154c-.53.065-.934.142-1.208.23-.337.106-.595.26-.772.462s-.267.47-.267.8a2.1 2.1 0 0 0 .056.533c.037.137.13.268.28.393.144.125.315.216.515.276s.512.088.937.088a2.76 2.76 0 0 0 1.026-.206c.345-.136.65-.316.912-.54zm14.07-4.55h-.3c-.144-.05-.374-.087-.7-.112l-.794-.038a7.59 7.59 0 0 0-1.271.094 7.27 7.27 0 0 0-1.187.319v7.05h-3.38v-10.53h3.38v1.547c.742-.638 1.387-1.06 1.935-1.27s1.053-.314 1.515-.314l.402.01.393.028V16.7zm8.636 7.212c-.362.094-.746.167-1.152.22s-.902.08-1.5.08c-1.3 0-2.287-.266-2.927-.797s-.96-1.44-.96-2.73v-4.923h-1.386v-2.288h1.386v-3h3.38v3H68.2v2.288h-3.147V19.5l.01.967c.006.275.056.522.15.742a1.02 1.02 0 0 0 .462.52c.222.127.543.192.967.192.174 0 .403-.038.686-.113s.48-.144.593-.206h.28v2.3zm13.104.092h-10.95v-2.307l2.515-1.932 2.02-1.763c.756-.73 1.293-1.37 1.6-1.913s.478-1.08.478-1.613c0-.638-.205-1.13-.613-1.477s-.998-.52-1.766-.52c-.575 0-1.18.12-1.813.356a8.32 8.32 0 0 0-1.766.909h-.3V10.64c.443-.194 1.097-.388 1.962-.582s1.73-.3 2.6-.3c1.748 0 3.08.367 4 1.102s1.377 1.774 1.377 3.118a5.11 5.11 0 0 1-.66 2.513c-.44.794-1.113 1.613-2.02 2.457l-1.714 1.448-1.228.924h6.267v2.676z" fill="#fff"/><path d="M102.256 14.45c0 .625-.1 1.236-.328 1.833a4.08 4.08 0 0 1-.937 1.505c-.556.55-1.176.966-1.86 1.247s-1.535.422-2.553.422H94.34v4.548h-3.598V10.042h5.92c.887 0 1.635.077 2.244.23a5.25 5.25 0 0 1 1.615.69 3.71 3.71 0 0 1 1.288 1.416c.298.576.446 1.267.446 2.074zm-3.718.08a1.65 1.65 0 0 0-.318-1.015c-.212-.285-.46-.482-.74-.594-.375-.15-.74-.232-1.096-.248l-1.424-.023h-.618v4.172h1.03c.6 0 1.116-.037 1.513-.112s.73-.225.997-.45a1.74 1.74 0 0 0 .502-.716c.102-.277.154-.616.154-1.015zm12.448 8.358l-.675.497a4.85 4.85 0 0 1-.759.46 4.84 4.84 0 0 1-1.03.333 6.06 6.06 0 0 1-1.17.107c-1 0-1.836-.3-2.5-.93s-1.012-1.4-1.012-2.372c0-.77.172-1.397.515-1.884s.83-.872 1.462-1.153c.624-.282 1.398-.48 2.323-.6l2.875-.263v-.056c0-.582-.237-.983-.712-1.205s-1.174-.333-2.098-.333c-.557 0-1.15.1-1.78.295l-1.358.455h-.3V13.7c.355-.094.935-.205 1.737-.333a15.29 15.29 0 0 1 2.412-.192c1.917 0 3.302.295 4.154.886s1.278 1.518 1.278 2.78v7.164h-3.344V22.89zm0-1.638v-2.187l-1.48.154c-.53.065-.934.142-1.208.23-.337.106-.595.26-.772.462s-.268.47-.268.8c0 .218.02.396.057.533s.13.268.28.393c.144.125.315.216.515.276s.513.088.937.088c.338 0 .68-.068 1.026-.206s.65-.316.912-.54zm11.19-.97l2.4-6.807h3.468l-5.845 14.394h-3.66l1.672-3.943-4.1-10.45h3.54l2.515 6.806z" fill="#650093"/></svg>