<svg class="ca-header-image" width="90px" height="30px" viewBox="0 0 90 30" version="1.1"
				xmlns="http://www.w3.org/2000/svg" xmlns:xlink="http://www.w3.org/1999/xlink">
				<g fill="#0ABF53">
					<path
						d="M12.6814773,6.97709922 L0.227386364,6.97709922 L0.227386364,11.0241104 L8.34443182,11.0243423 C8.84647727,11.0243423 9.25352273,11.4397356 9.25352273,11.9520771 L9.25352273,19.1185966 L7.51875,19.1185966 C7.01670455,19.1185966 6.60965909,18.7032034 6.60965909,18.1908618 L6.60965909,13.0479639 L3.18170455,13.0479639 C1.42443182,13.0479639 -0.000113636363,14.5017243 -0.000113636363,16.2950357 L-0.000113636363,19.9187679 C-0.000113636363,21.7120793 1.42443182,23.1658397 3.18170455,23.1658397 L15.8632955,23.1658397 L15.8632955,10.2241711 C15.8632955,8.43085967 14.43875,6.97709922 12.6814773,6.97709922"
						id="Fill-1"></path>
					<path
						d="M27.7605455,19.1185734 L26.0257727,19.1185734 C25.5237273,19.1185734 25.1166818,18.7031802 25.1166818,18.1908386 L25.1166818,6.97707603 L21.6889545,6.97707603 C19.9316818,6.97707603 18.5071364,8.43083648 18.5071364,10.2241479 L18.5071364,19.9187447 C18.5071364,21.7120561 19.9316818,23.1658165 21.6889545,23.1658165 L34.3705455,23.1658165 L34.3705455,0.231748156 L27.7607727,0.231748156 L27.7605455,19.1185734 Z"
						id="Fill-4"></path>
					<path
						d="M46.2677955,19.1185734 L44.5330227,19.1185734 C44.0309773,19.1185734 43.6239318,18.7031802 43.6239318,18.1908386 L43.6239318,6.97707603 L37.0143864,6.97707603 L37.0143864,19.9187447 C37.0143864,21.7120561 38.4389318,23.1658165 40.1962045,23.1658165 L46.2680227,23.1658165 L46.2680227,25.1894381 L37.2416591,25.1894381 L37.2416591,29.9102167 L49.69575,29.9102167 C51.4530227,29.9102167 52.8775682,28.4564562 52.8775682,26.6631448 L52.8775682,6.97707603 L46.2677955,6.97707603 L46.2677955,19.1185734 Z"
						id="Fill-7"></path>
					<path
						d="M68.203,6.97709922 L55.5214091,6.97709922 L55.5214091,19.9187679 C55.5214091,21.7120793 56.9459545,23.1658397 58.7032273,23.1658397 L71.1575455,23.1658397 L71.1575455,19.1185966 L63.0402727,19.1185966 C62.5382273,19.1185966 62.1311818,18.7032034 62.1311818,18.1908618 L62.1311818,11.0243423 L63.8659545,11.0243423 C64.368,11.0243423 64.7750455,11.4397356 64.7750455,11.9520771 L64.7750455,17.0949751 L68.203,17.0949751 C69.9602727,17.0949751 71.3848182,15.6412146 71.3848182,13.8479032 L71.3848182,10.2241711 C71.3848182,8.43085967 69.9602727,6.97709922 68.203,6.97709922"
						id="Fill-10"></path>
					<path
						d="M86.7101364,6.97709922 L74.0287727,6.97709922 L74.0287727,23.1658397 L80.6383182,23.1658397 L80.6383182,11.0241104 L82.3730909,11.0241104 C82.8730909,11.0241104 83.2821818,11.4415911 83.2821818,11.9518452 L83.2821818,23.1658397 L89.8919545,23.1658397 L89.8919545,10.2241711 C89.8919545,8.43085967 88.4674091,6.97709922 86.7101364,6.97709922"
						id="Fill-12"></path>
				</g>
			</svg>