<?xml version="1.0" standalone="no"?><!DOCTYPE svg PUBLIC "-//W3C//DTD SVG 1.1//EN" "http://www.w3.org/Graphics/SVG/1.1/DTD/svg11.dtd"><svg class="icon" width="200px" height="200.00px" viewBox="0 0 1024 1024" version="1.1" xmlns="http://www.w3.org/2000/svg"><path fill="#ffffff" d="M587.732845 511.705288l0.563842 0.563842-75.609025 75.507718-0.512676-0.512676L171.83153 927.603533c-20.909216 20.912285-54.774511 20.947078-75.638701 0.082888-20.866237-20.866237-20.829398-54.732555 0.079818-75.641771l340.339362-340.339362L96.863095 171.953304c-20.909216-20.909216-20.947078-54.774511-0.079818-75.638701 20.86419-20.866237 54.729485-20.829398 75.638701 0.079818L512.173962 436.146405 851.575975 96.742345c20.912285-20.909216 54.774511-20.947078 75.641771-0.079818 20.86419 20.86419 20.829398 54.729485-0.079818 75.638701L587.732845 511.705288zM658.954957 600.669482c12.227486 1.119497 22.957875 6.424316 31.306007 14.179954l0.310062-0.306992 237.155305 237.156328c20.909216 20.912285 20.944008 54.774511 0.079818 75.641771-20.866237 20.86419-54.729485 20.829398-75.641771-0.079818L614.959953 690.050162l0.034792-0.034792c-9.910721-10.728342-15.553231-25.319665-14.115486-41.012066C603.568509 619.62009 629.569696 597.97921 658.954957 600.669482z" /></svg>